<?xml version="1.0" encoding="UTF-8"?>
<svg xmlns="http://www.w3.org/2000/svg" width="12in" height="12in" viewBox="0 0 12 12">
<rect x="0" y="0" width="12" height="12" fill="none" stroke="rgb(255,0,0)" stroke-width="0.01"/>
<g id="P01_strings">
<line x1="9.2951" y1="6.7891" x2="9.4973" y2="6.0344" stroke="rgb(0,0,0)" stroke-width="0.01" fill="none"/>
<text x="9.3962" y="6.3117" fill="rgb(0,0,0)" font-family="monospace" font-size="0.16" text-anchor="middle">P01</text>
<circle cx="9.2951" cy="6.7891" r="0.035" fill="rgb(0,0,0)"/>
<text x="9.2951" y="6.9811" fill="rgb(0,0,0)" font-family="monospace" font-size="0.12" text-anchor="middle">L</text>
<circle cx="9.4973" cy="6.0344" r="0.035" fill="rgb(0,0,0)"/>
<text x="9.4973" y="6.2264" fill="rgb(0,0,0)" font-family="monospace" font-size="0.12" text-anchor="middle">R</text>
</g>
<g id="P02_strings">
<line x1="2.7877" y1="8.7457" x2="4.4696" y2="7.9385" stroke="rgb(0,0,0)" stroke-width="0.01" fill="none"/>
<text x="3.6287" y="8.2421" fill="rgb(0,0,0)" font-family="monospace" font-size="0.16" text-anchor="middle">P02</text>
<circle cx="2.7877" cy="8.7457" r="0.035" fill="rgb(0,0,0)"/>
<text x="2.7877" y="8.9377" fill="rgb(0,0,0)" font-family="monospace" font-size="0.12" text-anchor="middle">L</text>
<circle cx="4.4696" cy="7.9385" r="0.035" fill="rgb(0,0,0)"/>
<text x="4.4696" y="8.1305" fill="rgb(0,0,0)" font-family="monospace" font-size="0.12" text-anchor="middle">R</text>
</g>
<g id="P03_strings">
<line x1="2.584" y1="5.5448" x2="3.1919" y2="4.5406" stroke="rgb(0,0,0)" stroke-width="0.01" fill="none"/>
<text x="2.888" y="4.9427" fill="rgb(0,0,0)" font-family="monospace" font-size="0.16" text-anchor="middle">P03</text>
<circle cx="2.584" cy="5.5448" r="0.035" fill="rgb(0,0,0)"/>
<text x="2.584" y="5.7368" fill="rgb(0,0,0)" font-family="monospace" font-size="0.12" text-anchor="middle">L</text>
<circle cx="3.1919" cy="4.5406" r="0.035" fill="rgb(0,0,0)"/>
<text x="3.1919" y="4.7326" fill="rgb(0,0,0)" font-family="monospace" font-size="0.12" text-anchor="middle">R</text>
</g>
<g id="P04_strings">
<line x1="2.6281" y1="9.0275" x2="3.2707" y2="8.1428" stroke="rgb(0,0,0)" stroke-width="0.01" fill="none"/>
<text x="2.9494" y="8.4852" fill="rgb(0,0,0)" font-family="monospace" font-size="0.16" text-anchor="middle">P04</text>
<circle cx="2.6281" cy="9.0275" r="0.035" fill="rgb(0,0,0)"/>
<text x="2.6281" y="9.2195" fill="rgb(0,0,0)" font-family="monospace" font-size="0.12" text-anchor="middle">L</text>
<circle cx="3.2707" cy="8.1428" r="0.035" fill="rgb(0,0,0)"/>
<text x="3.2707" y="8.3348" fill="rgb(0,0,0)" font-family="monospace" font-size="0.12" text-anchor="middle">R</text>
</g>
<g id="P05_strings">
<line x1="5.2786" y1="8.5226" x2="5.7731" y2="7.9535" stroke="rgb(0,0,0)" stroke-width="0.01" fill="none"/>
<text x="5.5259" y="8.1381" fill="rgb(0,0,0)" font-family="monospace" font-size="0.16" text-anchor="middle">P05</text>
<circle cx="5.2786" cy="8.5226" r="0.035" fill="rgb(0,0,0)"/>
<text x="5.2786" y="8.7146" fill="rgb(0,0,0)" font-family="monospace" font-size="0.12" text-anchor="middle">L</text>
<circle cx="5.7731" cy="7.9535" r="0.035" fill="rgb(0,0,0)"/>
<text x="5.7731" y="8.1455" fill="rgb(0,0,0)" font-family="monospace" font-size="0.12" text-anchor="middle">R</text>
</g>
<g id="P06_strings">
<line x1="4.5118" y1="3.6062" x2="5.8533" y2="3.1209" stroke="rgb(0,0,0)" stroke-width="0.01" fill="none"/>
<text x="5.1825" y="3.2636" fill="rgb(0,0,0)" font-family="monospace" font-size="0.16" text-anchor="middle">P06</text>
<circle cx="4.5118" cy="3.6062" r="0.035" fill="rgb(0,0,0)"/>
<text x="4.5118" y="3.7982" fill="rgb(0,0,0)" font-family="monospace" font-size="0.12" text-anchor="middle">L</text>
<circle cx="5.8533" cy="3.1209" r="0.035" fill="rgb(0,0,0)"/>
<text x="5.8533" y="3.3129" fill="rgb(0,0,0)" font-family="monospace" font-size="0.12" text-anchor="middle">R</text>
</g>
<g id="P07_strings">
<line x1="3.0084" y1="3.3465" x2="3.2475" y2="3.6836" stroke="rgb(0,0,0)" stroke-width="0.01" fill="none"/>
<text x="3.1279" y="3.415" fill="rgb(0,0,0)" font-family="monospace" font-size="0.16" text-anchor="middle">P07</text>
<circle cx="3.0084" cy="3.3465" r="0.035" fill="rgb(0,0,0)"/>
<text x="3.0084" y="3.5385" fill="rgb(0,0,0)" font-family="monospace" font-size="0.12" text-anchor="middle">L</text>
<circle cx="3.2475" cy="3.6836" r="0.035" fill="rgb(0,0,0)"/>
<text x="3.2475" y="3.8756" fill="rgb(0,0,0)" font-family="monospace" font-size="0.12" text-anchor="middle">R</text>
</g>
<g id="P08_strings">
<line x1="4.7433" y1="7.6755" x2="4.953" y2="7.4414" stroke="rgb(0,0,0)" stroke-width="0.01" fill="none"/>
<text x="4.8481" y="7.4585" fill="rgb(0,0,0)" font-family="monospace" font-size="0.16" text-anchor="middle">P08</text>
<circle cx="4.7433" cy="7.6755" r="0.035" fill="rgb(0,0,0)"/>
<text x="4.7433" y="7.8675" fill="rgb(0,0,0)" font-family="monospace" font-size="0.12" text-anchor="middle">L</text>
<circle cx="4.953" cy="7.4414" r="0.035" fill="rgb(0,0,0)"/>
<text x="4.953" y="7.6334" fill="rgb(0,0,0)" font-family="monospace" font-size="0.12" text-anchor="middle">R</text>
</g>
<g id="P09_strings">
<line x1="6.1487" y1="6.1997" x2="7.8874" y2="7.1463" stroke="rgb(0,0,0)" stroke-width="0.01" fill="none"/>
<text x="7.0181" y="6.573" fill="rgb(0,0,0)" font-family="monospace" font-size="0.16" text-anchor="middle">P09</text>
<circle cx="6.1487" cy="6.1997" r="0.035" fill="rgb(0,0,0)"/>
<text x="6.1487" y="6.3917" fill="rgb(0,0,0)" font-family="monospace" font-size="0.12" text-anchor="middle">L</text>
<circle cx="7.8874" cy="7.1463" r="0.035" fill="rgb(0,0,0)"/>
<text x="7.8874" y="7.3383" fill="rgb(0,0,0)" font-family="monospace" font-size="0.12" text-anchor="middle">R</text>
</g>
<g id="P10_strings">
<line x1="6.3919" y1="8.365" x2="8.4108" y2="8.906" stroke="rgb(0,0,0)" stroke-width="0.01" fill="none"/>
<text x="7.4014" y="8.5355" fill="rgb(0,0,0)" font-family="monospace" font-size="0.16" text-anchor="middle">P10</text>
<circle cx="6.3919" cy="8.365" r="0.035" fill="rgb(0,0,0)"/>
<text x="6.3919" y="8.557" fill="rgb(0,0,0)" font-family="monospace" font-size="0.12" text-anchor="middle">L</text>
<circle cx="8.4108" cy="8.906" r="0.035" fill="rgb(0,0,0)"/>
<text x="8.4108" y="9.098" fill="rgb(0,0,0)" font-family="monospace" font-size="0.12" text-anchor="middle">R</text>
</g>
<g id="P11_strings">
<line x1="3.7568" y1="1.2303" x2="4.1367" y2="2.334" stroke="rgb(0,0,0)" stroke-width="0.01" fill="none"/>
<text x="3.9468" y="1.6822" fill="rgb(0,0,0)" font-family="monospace" font-size="0.16" text-anchor="middle">P11</text>
<circle cx="3.7568" cy="1.2303" r="0.035" fill="rgb(0,0,0)"/>
<text x="3.7568" y="1.4223" fill="rgb(0,0,0)" font-family="monospace" font-size="0.12" text-anchor="middle">L</text>
<circle cx="4.1367" cy="2.334" r="0.035" fill="rgb(0,0,0)"/>
<text x="4.1367" y="2.526" fill="rgb(0,0,0)" font-family="monospace" font-size="0.12" text-anchor="middle">R</text>
</g>
<g id="P12_strings">
<line x1="6.164" y1="3.8933" x2="7.3722" y2="3.1441" stroke="rgb(0,0,0)" stroke-width="0.01" fill="none"/>
<text x="6.7681" y="3.4187" fill="rgb(0,0,0)" font-family="monospace" font-size="0.16" text-anchor="middle">P12</text>
<circle cx="6.164" cy="3.8933" r="0.035" fill="rgb(0,0,0)"/>
<text x="6.164" y="4.0853" fill="rgb(0,0,0)" font-family="monospace" font-size="0.12" text-anchor="middle">L</text>
<circle cx="7.3722" cy="3.1441" r="0.035" fill="rgb(0,0,0)"/>
<text x="7.3722" y="3.3361" fill="rgb(0,0,0)" font-family="monospace" font-size="0.12" text-anchor="middle">R</text>
</g>
<g id="P13_strings">
<line x1="7.9837" y1="7.9292" x2="9.2009" y2="7.4159" stroke="rgb(0,0,0)" stroke-width="0.01" fill="none"/>
<text x="8.5923" y="7.5726" fill="rgb(0,0,0)" font-family="monospace" font-size="0.16" text-anchor="middle">P13</text>
<circle cx="7.9837" cy="7.9292" r="0.035" fill="rgb(0,0,0)"/>
<text x="7.9837" y="8.1212" fill="rgb(0,0,0)" font-family="monospace" font-size="0.12" text-anchor="middle">L</text>
<circle cx="9.2009" cy="7.4159" r="0.035" fill="rgb(0,0,0)"/>
<text x="9.2009" y="7.6079" fill="rgb(0,0,0)" font-family="monospace" font-size="0.12" text-anchor="middle">R</text>
</g>
<g id="P14_strings">
<line x1="3.9374" y1="5.7362" x2="4.3101" y2="5.1638" stroke="rgb(0,0,0)" stroke-width="0.01" fill="none"/>
<text x="4.1238" y="5.35" fill="rgb(0,0,0)" font-family="monospace" font-size="0.16" text-anchor="middle">P14</text>
<circle cx="3.9374" cy="5.7362" r="0.035" fill="rgb(0,0,0)"/>
<text x="3.9374" y="5.9282" fill="rgb(0,0,0)" font-family="monospace" font-size="0.12" text-anchor="middle">L</text>
<circle cx="4.3101" cy="5.1638" r="0.035" fill="rgb(0,0,0)"/>
<text x="4.3101" y="5.3558" fill="rgb(0,0,0)" font-family="monospace" font-size="0.12" text-anchor="middle">R</text>
</g>
<g id="P15_strings">
<line x1="5.708" y1="8.1981" x2="6.844" y2="7.8926" stroke="rgb(0,0,0)" stroke-width="0.01" fill="none"/>
<text x="6.276" y="7.9454" fill="rgb(0,0,0)" font-family="monospace" font-size="0.16" text-anchor="middle">P15</text>
<circle cx="5.708" cy="8.1981" r="0.035" fill="rgb(0,0,0)"/>
<text x="5.708" y="8.3901" fill="rgb(0,0,0)" font-family="monospace" font-size="0.12" text-anchor="middle">L</text>
<circle cx="6.844" cy="7.8926" r="0.035" fill="rgb(0,0,0)"/>
<text x="6.844" y="8.0846" fill="rgb(0,0,0)" font-family="monospace" font-size="0.12" text-anchor="middle">R</text>
</g>
<g id="P16_strings">
<line x1="8.0403" y1="4.695" x2="8.8354" y2="3.891" stroke="rgb(0,0,0)" stroke-width="0.01" fill="none"/>
<text x="8.4378" y="4.193" fill="rgb(0,0,0)" font-family="monospace" font-size="0.16" text-anchor="middle">P16</text>
<circle cx="8.0403" cy="4.695" r="0.035" fill="rgb(0,0,0)"/>
<text x="8.0403" y="4.887" fill="rgb(0,0,0)" font-family="monospace" font-size="0.12" text-anchor="middle">L</text>
<circle cx="8.8354" cy="3.891" r="0.035" fill="rgb(0,0,0)"/>
<text x="8.8354" y="4.083" fill="rgb(0,0,0)" font-family="monospace" font-size="0.12" text-anchor="middle">R</text>
</g>
<g id="P17_strings">
<line x1="3.6745" y1="9.9208" x2="5.2164" y2="9.4069" stroke="rgb(0,0,0)" stroke-width="0.01" fill="none"/>
<text x="4.4454" y="9.5639" fill="rgb(0,0,0)" font-family="monospace" font-size="0.16" text-anchor="middle">P17</text>
<circle cx="3.6745" cy="9.9208" r="0.035" fill="rgb(0,0,0)"/>
<text x="3.6745" y="10.1128" fill="rgb(0,0,0)" font-family="monospace" font-size="0.12" text-anchor="middle">L</text>
<circle cx="5.2164" cy="9.4069" r="0.035" fill="rgb(0,0,0)"/>
<text x="5.2164" y="9.5989" fill="rgb(0,0,0)" font-family="monospace" font-size="0.12" text-anchor="middle">R</text>
</g>
<g id="P18_strings">
<line x1="4.4974" y1="1.709" x2="5.3386" y2="1.4836" stroke="rgb(0,0,0)" stroke-width="0.01" fill="none"/>
<text x="4.918" y="1.4963" fill="rgb(0,0,0)" font-family="monospace" font-size="0.16" text-anchor="middle">P18</text>
<circle cx="4.4974" cy="1.709" r="0.035" fill="rgb(0,0,0)"/>
<text x="4.4974" y="1.901" fill="rgb(0,0,0)" font-family="monospace" font-size="0.12" text-anchor="middle">L</text>
<circle cx="5.3386" cy="1.4836" r="0.035" fill="rgb(0,0,0)"/>
<text x="5.3386" y="1.6756" fill="rgb(0,0,0)" font-family="monospace" font-size="0.12" text-anchor="middle">R</text>
</g>
<g id="P19_strings">
<line x1="8.9796" y1="9.6579" x2="9.592" y2="9.06" stroke="rgb(0,0,0)" stroke-width="0.01" fill="none"/>
<text x="9.2858" y="9.2589" fill="rgb(0,0,0)" font-family="monospace" font-size="0.16" text-anchor="middle">P19</text>
<circle cx="8.9796" cy="9.6579" r="0.035" fill="rgb(0,0,0)"/>
<text x="8.9796" y="9.8499" fill="rgb(0,0,0)" font-family="monospace" font-size="0.12" text-anchor="middle">L</text>
<circle cx="9.592" cy="9.06" r="0.035" fill="rgb(0,0,0)"/>
<text x="9.592" y="9.252" fill="rgb(0,0,0)" font-family="monospace" font-size="0.12" text-anchor="middle">R</text>
</g>
<g id="P20_strings">
<line x1="4.1374" y1="9.7248" x2="4.2791" y2="9.7248" stroke="rgb(0,0,0)" stroke-width="0.01" fill="none"/>
<text x="4.2083" y="9.6248" fill="rgb(0,0,0)" font-family="monospace" font-size="0.16" text-anchor="middle">P20</text>
<circle cx="4.1374" cy="9.7248" r="0.035" fill="rgb(0,0,0)"/>
<text x="4.1374" y="9.9168" fill="rgb(0,0,0)" font-family="monospace" font-size="0.12" text-anchor="middle">L</text>
<circle cx="4.2791" cy="9.7248" r="0.035" fill="rgb(0,0,0)"/>
<text x="4.2791" y="9.9168" fill="rgb(0,0,0)" font-family="monospace" font-size="0.12" text-anchor="middle">R</text>
</g>
</svg>
