<?xml version="1.0" encoding="UTF-8"?>
<svg id="Layer_1" xmlns="http://www.w3.org/2000/svg" version="1.1" viewBox="0 0 864 864">
  <!-- Generator: Adobe Illustrator 30.3.0, SVG Export Plug-In . SVG Version: 2.1.3 Build 182)  -->
  <defs>
    <style>
      .st0 {
        font-size: 11.52px;
      }

      .st0, .st1 {
        font-family: CourierNewPSMT, 'Courier New';
        isolation: isolate;
      }

      .st2 {
        fill: none;
        stroke: #000;
        stroke-miterlimit: 288;
        stroke-width: .72px;
      }

      .st1 {
        font-size: 8.64px;
      }
    </style>
  </defs>
  <rect class="st2" width="864" height="864"/>
  <g id="P01_strings">
    <line class="st2" x1="682.36" y1="459.75" x2="689.97" y2="431.37"/>
    <text class="st0" transform="translate(689.24 420.31)"><tspan x="0" y="0">P01</tspan></text>
    <circle cx="682.36" cy="459.75" r="2.52"/>
    <text class="st1" transform="translate(664.19 473.56)"><tspan x="0" y="0">Lx225mm</tspan></text>
    <circle cx="689.97" cy="431.37" r="2.52"/>
    <text class="st1" transform="translate(700.42 443.1)"><tspan x="0" y="0">Rx221mm</tspan></text>
  </g>
  <g id="P02_strings">
    <line class="st2" x1="178.67" y1="638.5" x2="295.15" y2="589.76"/>
    <text class="st0" transform="translate(301.03 590.53)"><tspan x="0" y="0">P02</tspan></text>
    <circle cx="178.67" cy="638.5" r="2.52"/>
    <text class="st1" transform="translate(155.25 632.22)"><tspan x="0" y="0">Lx189mm</tspan></text>
    <circle cx="295.15" cy="589.76" r="2.52"/>
    <text class="st1" transform="translate(287.42 603.14)"><tspan x="0" y="0">Rx210mm</tspan></text>
  </g>
  <g id="P03_strings">
    <line class="st2" x1="182.12" y1="432.92" x2="229.49" y2="355.54"/>
    <text class="st0" transform="translate(195.44 387)"><tspan x="0" y="0">P03</tspan></text>
    <circle cx="182.12" cy="432.92" r="2.52"/>
    <text class="st1" transform="translate(164 446.75)"><tspan x="0" y="0">Lx181mm</tspan></text>
    <circle cx="229.49" cy="355.54" r="2.52"/>
    <text class="st1" transform="translate(211.38 369.38)"><tspan x="0" y="0">Rx185mm</tspan></text>
  </g>
  <g id="P04_strings">
    <line class="st2" x1="354.41" y1="620.85" x2="387.68" y2="589.07"/>
    <text class="st0" transform="translate(354.41 595.87)"><tspan x="0" y="0">P04</tspan></text>
    <circle cx="354.41" cy="620.85" r="2.52"/>
    <text class="st1" transform="translate(336.25 634.69)"><tspan x="0" y="0">Lx247mm</tspan></text>
    <circle cx="387.68" cy="589.07" r="2.52"/>
    <text class="st1" transform="translate(358.92 583.3)"><tspan x="0" y="0">Rx239mm</tspan></text>
  </g>
  <g id="P05_strings">
    <line class="st2" x1="303.42" y1="260.37" x2="409.91" y2="196.62"/>
    <text class="st0" transform="translate(346.31 221.31)"><tspan x="0" y="0">P05</tspan></text>
    <circle cx="303.42" cy="260.37" r="2.52"/>
    <text class="st1" transform="translate(285.25 274.19)"><tspan x="0" y="0">Lx172mm</tspan></text>
    <circle cx="409.91" cy="196.62" r="2.52"/>
    <text class="st1" transform="translate(416.41 205.01)"><tspan x="0" y="0">Rx189mm</tspan></text>
  </g>
  <g id="P06_strings">
    <line class="st2" x1="209.78" y1="272.94" x2="220.51" y2="282.84"/>
    <text class="st0" transform="translate(196.44 262.89)"><tspan x="0" y="0">P06</tspan></text>
    <circle cx="209.78" cy="272.94" r="2.52"/>
    <text class="st1" transform="translate(164.54 280.32)"><tspan x="0" y="0">Lx185mm</tspan></text>
    <circle cx="220.51" cy="282.84" r="2.52"/>
    <text class="st1" transform="translate(215.02 295.71)"><tspan x="0" y="0">Rx178mm</tspan></text>
  </g>
  <g id="P07_strings">
    <line class="st2" x1="325.25" y1="551.43" x2="335.33" y2="536.13"/>
    <text class="st0" transform="translate(320.37 530.5)"><tspan x="0" y="0">P07</tspan></text>
    <circle cx="325.25" cy="551.43" r="2.52"/>
    <text class="st1" transform="translate(307.12 565.25)"><tspan x="0" y="0">Lx283mm</tspan></text>
    <circle cx="335.33" cy="536.13" r="2.52"/>
    <text class="st1" transform="translate(340.26 539.11)"><tspan x="0" y="0">Rx287mm</tspan></text>
  </g>
  <g id="P08_strings">
    <line class="st2" x1="412.16" y1="466.22" x2="552.26" y2="539.65"/>
    <text class="st0" transform="translate(471.81 495.75)"><tspan x="0" y="0">P08</tspan></text>
    <circle cx="412.16" cy="466.22" r="2.52"/>
    <text class="st1" transform="translate(394 480.06)"><tspan x="0" y="0">Lx171mm</tspan></text>
    <circle cx="552.26" cy="539.65" r="2.52"/>
    <text class="st1" transform="translate(534.12 553.5)"><tspan x="0" y="0">Rx157mm</tspan></text>
  </g>
  <g id="P09_strings">
    <line class="st2" x1="487.25" y1="610.87" x2="617.91" y2="645.88"/>
    <text class="st0" transform="translate(542.19 621.19)"><tspan x="0" y="0">P09</tspan></text>
    <circle cx="487.25" cy="610.87" r="2.52"/>
    <text class="st1" transform="translate(469.12 624.69)"><tspan x="0" y="0">Lx130mm</tspan></text>
    <circle cx="617.91" cy="645.88" r="2.52"/>
    <text class="st1" transform="translate(599.75 659.69)"><tspan x="0" y="0">Rx128mm</tspan></text>
  </g>
  <g id="P10_strings">
    <line class="st2" x1="262.99" y1="77.72" x2="279.27" y2="129.51"/>
    <text class="st0" transform="translate(242.14 104.66)"><tspan x="0" y="0">P10</tspan></text>
    <circle cx="262.99" cy="77.72" r="2.52"/>
    <text class="st1" transform="translate(265.51 72.58)"><tspan x="0" y="0">Lx208mm</tspan></text>
    <circle cx="279.27" cy="129.51" r="2.52"/>
    <text class="st1" transform="translate(261.12 143.31)"><tspan x="0" y="0">Rx199mm</tspan></text>
  </g>
  <g id="P11_strings">
    <line class="st2" x1="418.93" y1="293.19" x2="502.77" y2="236.11"/>
    <text class="st0" transform="translate(446.98 253.75)"><tspan x="0" y="0">P11</tspan></text>
    <circle cx="418.93" cy="293.19" r="2.52"/>
    <text class="st1" transform="translate(400.81 307)"><tspan x="0" y="0">Lx229mm</tspan></text>
    <circle cx="502.77" cy="236.11" r="2.52"/>
    <text class="st1" transform="translate(505.36 247.3)"><tspan x="0" y="0">Rx243mm</tspan></text>
  </g>
  <g id="P12_strings">
    <line class="st2" x1="561.69" y1="572.4" x2="660.95" y2="535.43"/>
    <text class="st0" transform="translate(600.94 546.69)"><tspan x="0" y="0">P12</tspan></text>
    <circle cx="561.69" cy="572.4" r="2.52"/>
    <text class="st1" transform="translate(543.56 586.25)"><tspan x="0" y="0">Lx239mm</tspan></text>
    <circle cx="660.95" cy="535.43" r="2.52"/>
    <text class="st1" transform="translate(642.81 549.25)"><tspan x="0" y="0">Rx236mm</tspan></text>
  </g>
  <g id="P13_strings">
    <line class="st2" x1="299.61" y1="420.31" x2="307.72" y2="390.06"/>
    <text class="st0" transform="translate(295.15 384.36)"><tspan x="0" y="0">P13</tspan></text>
    <circle cx="299.61" cy="420.31" r="2.52"/>
    <text class="st1" transform="translate(281.44 434.12)"><tspan x="0" y="0">Lx174mm</tspan></text>
    <circle cx="307.72" cy="390.06" r="2.52"/>
    <text class="st1" transform="translate(315.31 400.76)"><tspan x="0" y="0">Rx175mm</tspan></text>
  </g>
  <g id="P14_strings">
    <line class="st2" x1="398.65" y1="598.39" x2="477.4" y2="577.29"/>
    <text class="st0" transform="translate(427.62 580.62)"><tspan x="0" y="0">P14</tspan></text>
    <circle cx="398.65" cy="598.39" r="2.52"/>
    <text class="st1" transform="translate(395.12 608.35)"><tspan x="0" y="0">Lx303mm</tspan></text>
    <circle cx="477.4" cy="577.29" r="2.52"/>
    <text class="st1" transform="translate(459.25 591.12)"><tspan x="0" y="0">Rx280mm</tspan></text>
  </g>
  <g id="P15_strings">
    <line class="st2" x1="589.02" y1="342.11" x2="637.16" y2="271.92"/>
    <text class="st0" transform="translate(591.54 296.81)"><tspan x="0" y="0">P15</tspan></text>
    <circle cx="589.02" cy="342.11" r="2.52"/>
    <text class="st1" transform="translate(570.88 355.94)"><tspan x="0" y="0">Lx181mm</tspan></text>
    <circle cx="637.16" cy="271.92" r="2.52"/>
    <text class="st1" transform="translate(643.18 280.32)"><tspan x="0" y="0">Rx183mm</tspan></text>
  </g>
  <g id="P16_strings">
    <line class="st2" x1="278.34" y1="741.25" x2="395.12" y2="709.96"/>
    <text class="st0" transform="translate(326.38 718.38)"><tspan x="0" y="0">P16</tspan></text>
    <circle cx="278.34" cy="741.25" r="2.52"/>
    <text class="st1" transform="translate(260.19 755.06)"><tspan x="0" y="0">Lx111mm</tspan></text>
    <circle cx="395.12" cy="709.96" r="2.52"/>
    <text class="st1" transform="translate(377 723.75)"><tspan x="0" y="0">Rx100mm</tspan></text>
  </g>
  <g id="P17_strings">
    <line class="st2" x1="320.92" y1="122.37" x2="386.76" y2="104.66"/>
    <text class="st0" transform="translate(343.5 106.31)"><tspan x="0" y="0">P17</tspan></text>
    <circle cx="320.92" cy="122.37" r="2.52"/>
    <text class="st1" transform="translate(302.75 136.19)"><tspan x="0" y="0">Lx247mm</tspan></text>
    <circle cx="386.76" cy="104.66" r="2.52"/>
    <text class="st1" transform="translate(368.62 118.5)"><tspan x="0" y="0">Rx241mm</tspan></text>
  </g>
  <g id="P18_strings">
    <line class="st2" x1="650.49" y1="691.83" x2="689.24" y2="644.75"/>
    <text class="st0" transform="translate(679.04 638.11)"><tspan x="0" y="0">P18</tspan></text>
    <circle cx="650.49" cy="691.83" r="2.52"/>
    <text class="st1" transform="translate(632.31 705.62)"><tspan x="0" y="0">Lx159mm</tspan></text>
    <circle cx="689.24" cy="644.75" r="2.52"/>
    <text class="st1" transform="translate(700.42 647.27)"><tspan x="0" y="0">Rx154mm</tspan></text>
  </g>
  <g id="P19_strings">
    <line class="st2" x1="180.98" y1="658.91" x2="228.89" y2="617.3"/>
    <text class="st0" transform="translate(190.41 662.99)"><tspan x="0" y="0">P19</tspan></text>
    <circle cx="180.98" cy="658.91" r="2.52"/>
    <text class="st1" transform="translate(162.81 672.75)"><tspan x="0" y="0">Lx145mm</tspan></text>
    <circle cx="228.89" cy="617.3" r="2.52"/>
    <text class="st1" transform="translate(231.41 623.37)"><tspan x="0" y="0">Rx133mm</tspan></text>
  </g>
  <g id="P20_strings">
    <line class="st2" x1="211.15" y1="632.22" x2="258.91" y2="589.92"/>
    <text class="st0" transform="translate(256.39 585.19)"><tspan x="0" y="0">P20</tspan></text>
    <circle cx="211.15" cy="632.22" r="2.52"/>
    <text class="st1" transform="translate(213.67 639.46)"><tspan x="0" y="0">Lx161mm</tspan></text>
    <circle cx="258.91" cy="589.92" r="2.52"/>
    <text class="st1" transform="translate(220.36 589.07)"><tspan x="0" y="0">Rx159mm</tspan></text>
  </g>
</svg>