<?xml version="1.0" encoding="UTF-8"?>
<svg xmlns="http://www.w3.org/2000/svg" width="12in" height="12in" viewBox="0 0 12 12">
<rect x="0" y="0" width="12" height="12" fill="none" stroke="rgb(255,0,0)" stroke-width="0.01"/>
<g id="P01_strings">
<line x1="9.29511" y1="6.789095" x2="9.497335" y2="6.03438" stroke="rgb(0,0,0)" stroke-width="0.01" fill="none"/>
<text x="9.396223" y="6.311737" fill="rgb(0,0,0)" font-family="monospace" font-size="0.16" text-anchor="middle">P01</text>
<circle cx="9.29511" cy="6.789095" r="0.035" fill="rgb(0,0,0)"/>
<text x="9.29511" y="6.981095" fill="rgb(0,0,0)" font-family="monospace" font-size="0.12" text-anchor="middle">L</text>
<circle cx="9.497335" cy="6.03438" r="0.035" fill="rgb(0,0,0)"/>
<text x="9.497335" y="6.22638" fill="rgb(0,0,0)" font-family="monospace" font-size="0.12" text-anchor="middle">R</text>
</g>
<g id="P02_strings">
<line x1="2.787748" y1="8.74568" x2="4.469569" y2="7.938483" stroke="rgb(0,0,0)" stroke-width="0.01" fill="none"/>
<text x="3.628659" y="8.242081" fill="rgb(0,0,0)" font-family="monospace" font-size="0.16" text-anchor="middle">P02</text>
<circle cx="2.787748" cy="8.74568" r="0.035" fill="rgb(0,0,0)"/>
<text x="2.787748" y="8.93768" fill="rgb(0,0,0)" font-family="monospace" font-size="0.12" text-anchor="middle">L</text>
<circle cx="4.469569" cy="7.938483" r="0.035" fill="rgb(0,0,0)"/>
<text x="4.469569" y="8.130483" fill="rgb(0,0,0)" font-family="monospace" font-size="0.12" text-anchor="middle">R</text>
</g>
<g id="P03_strings">
<line x1="2.584046" y1="5.544843" x2="3.191948" y2="4.54061" stroke="rgb(0,0,0)" stroke-width="0.01" fill="none"/>
<text x="2.887997" y="4.942726" fill="rgb(0,0,0)" font-family="monospace" font-size="0.16" text-anchor="middle">P03</text>
<circle cx="2.584046" cy="5.544843" r="0.035" fill="rgb(0,0,0)"/>
<text x="2.584046" y="5.736843" fill="rgb(0,0,0)" font-family="monospace" font-size="0.12" text-anchor="middle">L</text>
<circle cx="3.191948" cy="4.54061" r="0.035" fill="rgb(0,0,0)"/>
<text x="3.191948" y="4.73261" fill="rgb(0,0,0)" font-family="monospace" font-size="0.12" text-anchor="middle">R</text>
</g>
<g id="P04_strings">
<line x1="2.628135" y1="9.027538" x2="3.270685" y2="8.142784" stroke="rgb(0,0,0)" stroke-width="0.01" fill="none"/>
<text x="2.94941" y="8.485161" fill="rgb(0,0,0)" font-family="monospace" font-size="0.16" text-anchor="middle">P04</text>
<circle cx="2.628135" cy="9.027538" r="0.035" fill="rgb(0,0,0)"/>
<text x="2.628135" y="9.219538" fill="rgb(0,0,0)" font-family="monospace" font-size="0.12" text-anchor="middle">L</text>
<circle cx="3.270685" cy="8.142784" r="0.035" fill="rgb(0,0,0)"/>
<text x="3.270685" y="8.334784" fill="rgb(0,0,0)" font-family="monospace" font-size="0.12" text-anchor="middle">R</text>
</g>
<g id="P05_strings">
<line x1="5.278648" y1="8.522645" x2="5.773086" y2="7.953458" stroke="rgb(0,0,0)" stroke-width="0.01" fill="none"/>
<text x="5.525867" y="8.138052" fill="rgb(0,0,0)" font-family="monospace" font-size="0.16" text-anchor="middle">P05</text>
<circle cx="5.278648" cy="8.522645" r="0.035" fill="rgb(0,0,0)"/>
<text x="5.278648" y="8.714645" fill="rgb(0,0,0)" font-family="monospace" font-size="0.12" text-anchor="middle">L</text>
<circle cx="5.773086" cy="7.953458" r="0.035" fill="rgb(0,0,0)"/>
<text x="5.773086" y="8.145458" fill="rgb(0,0,0)" font-family="monospace" font-size="0.12" text-anchor="middle">R</text>
</g>
<g id="P06_strings">
<line x1="4.511786" y1="3.606247" x2="5.853298" y2="3.120865" stroke="rgb(0,0,0)" stroke-width="0.01" fill="none"/>
<text x="5.182542" y="3.263556" fill="rgb(0,0,0)" font-family="monospace" font-size="0.16" text-anchor="middle">P06</text>
<circle cx="4.511786" cy="3.606247" r="0.035" fill="rgb(0,0,0)"/>
<text x="4.511786" y="3.798247" fill="rgb(0,0,0)" font-family="monospace" font-size="0.12" text-anchor="middle">L</text>
<circle cx="5.853298" cy="3.120865" r="0.035" fill="rgb(0,0,0)"/>
<text x="5.853298" y="3.312865" fill="rgb(0,0,0)" font-family="monospace" font-size="0.12" text-anchor="middle">R</text>
</g>
<g id="P07_strings">
<line x1="3.008387" y1="3.346486" x2="3.247505" y2="3.683567" stroke="rgb(0,0,0)" stroke-width="0.01" fill="none"/>
<text x="3.127946" y="3.415027" fill="rgb(0,0,0)" font-family="monospace" font-size="0.16" text-anchor="middle">P07</text>
<circle cx="3.008387" cy="3.346486" r="0.035" fill="rgb(0,0,0)"/>
<text x="3.008387" y="3.538486" fill="rgb(0,0,0)" font-family="monospace" font-size="0.12" text-anchor="middle">L</text>
<circle cx="3.247505" cy="3.683567" r="0.035" fill="rgb(0,0,0)"/>
<text x="3.247505" y="3.875567" fill="rgb(0,0,0)" font-family="monospace" font-size="0.12" text-anchor="middle">R</text>
</g>
<g id="P08_strings">
<line x1="4.743316" y1="7.675492" x2="4.952953" y2="7.441446" stroke="rgb(0,0,0)" stroke-width="0.01" fill="none"/>
<text x="4.848134" y="7.458469" fill="rgb(0,0,0)" font-family="monospace" font-size="0.16" text-anchor="middle">P08</text>
<circle cx="4.743316" cy="7.675492" r="0.035" fill="rgb(0,0,0)"/>
<text x="4.743316" y="7.867492" fill="rgb(0,0,0)" font-family="monospace" font-size="0.12" text-anchor="middle">L</text>
<circle cx="4.952953" cy="7.441446" r="0.035" fill="rgb(0,0,0)"/>
<text x="4.952953" y="7.633446" fill="rgb(0,0,0)" font-family="monospace" font-size="0.12" text-anchor="middle">R</text>
</g>
<g id="P09_strings">
<line x1="6.148704" y1="6.199697" x2="7.887428" y2="7.146252" stroke="rgb(0,0,0)" stroke-width="0.01" fill="none"/>
<text x="7.018066" y="6.572974" fill="rgb(0,0,0)" font-family="monospace" font-size="0.16" text-anchor="middle">P09</text>
<circle cx="6.148704" cy="6.199697" r="0.035" fill="rgb(0,0,0)"/>
<text x="6.148704" y="6.391697" fill="rgb(0,0,0)" font-family="monospace" font-size="0.12" text-anchor="middle">L</text>
<circle cx="7.887428" cy="7.146252" r="0.035" fill="rgb(0,0,0)"/>
<text x="7.887428" y="7.338252" fill="rgb(0,0,0)" font-family="monospace" font-size="0.12" text-anchor="middle">R</text>
</g>
<g id="P10_strings">
<line x1="6.391938" y1="8.365016" x2="8.410848" y2="8.905982" stroke="rgb(0,0,0)" stroke-width="0.01" fill="none"/>
<text x="7.401393" y="8.535499" fill="rgb(0,0,0)" font-family="monospace" font-size="0.16" text-anchor="middle">P10</text>
<circle cx="6.391938" cy="8.365016" r="0.035" fill="rgb(0,0,0)"/>
<text x="6.391938" y="8.557016" fill="rgb(0,0,0)" font-family="monospace" font-size="0.12" text-anchor="middle">L</text>
<circle cx="8.410848" cy="8.905982" r="0.035" fill="rgb(0,0,0)"/>
<text x="8.410848" y="9.097982" fill="rgb(0,0,0)" font-family="monospace" font-size="0.12" text-anchor="middle">R</text>
</g>
<g id="P11_strings">
<line x1="3.756802" y1="1.230296" x2="4.136741" y2="2.334025" stroke="rgb(0,0,0)" stroke-width="0.01" fill="none"/>
<text x="3.946771" y="1.682161" fill="rgb(0,0,0)" font-family="monospace" font-size="0.16" text-anchor="middle">P11</text>
<circle cx="3.756802" cy="1.230296" r="0.035" fill="rgb(0,0,0)"/>
<text x="3.756802" y="1.422296" fill="rgb(0,0,0)" font-family="monospace" font-size="0.12" text-anchor="middle">L</text>
<circle cx="4.136741" cy="2.334025" r="0.035" fill="rgb(0,0,0)"/>
<text x="4.136741" y="2.526025" fill="rgb(0,0,0)" font-family="monospace" font-size="0.12" text-anchor="middle">R</text>
</g>
<g id="P12_strings">
<line x1="6.163974" y1="3.893284" x2="7.372166" y2="3.14408" stroke="rgb(0,0,0)" stroke-width="0.01" fill="none"/>
<text x="6.76807" y="3.418682" fill="rgb(0,0,0)" font-family="monospace" font-size="0.16" text-anchor="middle">P12</text>
<circle cx="6.163974" cy="3.893284" r="0.035" fill="rgb(0,0,0)"/>
<text x="6.163974" y="4.085284" fill="rgb(0,0,0)" font-family="monospace" font-size="0.12" text-anchor="middle">L</text>
<circle cx="7.372166" cy="3.14408" r="0.035" fill="rgb(0,0,0)"/>
<text x="7.372166" y="3.33608" fill="rgb(0,0,0)" font-family="monospace" font-size="0.12" text-anchor="middle">R</text>
</g>
<g id="P13_strings">
<line x1="7.983715" y1="7.929176" x2="9.200941" y2="7.415927" stroke="rgb(0,0,0)" stroke-width="0.01" fill="none"/>
<text x="8.592328" y="7.572552" fill="rgb(0,0,0)" font-family="monospace" font-size="0.16" text-anchor="middle">P13</text>
<circle cx="7.983715" cy="7.929176" r="0.035" fill="rgb(0,0,0)"/>
<text x="7.983715" y="8.121176" fill="rgb(0,0,0)" font-family="monospace" font-size="0.12" text-anchor="middle">L</text>
<circle cx="9.200941" cy="7.415927" r="0.035" fill="rgb(0,0,0)"/>
<text x="9.200941" y="7.607927" fill="rgb(0,0,0)" font-family="monospace" font-size="0.12" text-anchor="middle">R</text>
</g>
<g id="P14_strings">
<line x1="3.937384" y1="5.736232" x2="4.310122" y2="5.163817" stroke="rgb(0,0,0)" stroke-width="0.01" fill="none"/>
<text x="4.123753" y="5.350025" fill="rgb(0,0,0)" font-family="monospace" font-size="0.16" text-anchor="middle">P14</text>
<circle cx="3.937384" cy="5.736232" r="0.035" fill="rgb(0,0,0)"/>
<text x="3.937384" y="5.928232" fill="rgb(0,0,0)" font-family="monospace" font-size="0.12" text-anchor="middle">L</text>
<circle cx="4.310122" cy="5.163817" r="0.035" fill="rgb(0,0,0)"/>
<text x="4.310122" y="5.355817" fill="rgb(0,0,0)" font-family="monospace" font-size="0.12" text-anchor="middle">R</text>
</g>
<g id="P15_strings">
<line x1="5.708047" y1="8.198127" x2="6.844031" y2="7.892604" stroke="rgb(0,0,0)" stroke-width="0.01" fill="none"/>
<text x="6.276039" y="7.945366" fill="rgb(0,0,0)" font-family="monospace" font-size="0.16" text-anchor="middle">P15</text>
<circle cx="5.708047" cy="8.198127" r="0.035" fill="rgb(0,0,0)"/>
<text x="5.708047" y="8.390127" fill="rgb(0,0,0)" font-family="monospace" font-size="0.12" text-anchor="middle">L</text>
<circle cx="6.844031" cy="7.892604" r="0.035" fill="rgb(0,0,0)"/>
<text x="6.844031" y="8.084604" fill="rgb(0,0,0)" font-family="monospace" font-size="0.12" text-anchor="middle">R</text>
</g>
<g id="P16_strings">
<line x1="8.040301" y1="4.694971" x2="8.835376" y2="3.891014" stroke="rgb(0,0,0)" stroke-width="0.01" fill="none"/>
<text x="8.437839" y="4.192992" fill="rgb(0,0,0)" font-family="monospace" font-size="0.16" text-anchor="middle">P16</text>
<circle cx="8.040301" cy="4.694971" r="0.035" fill="rgb(0,0,0)"/>
<text x="8.040301" y="4.886971" fill="rgb(0,0,0)" font-family="monospace" font-size="0.12" text-anchor="middle">L</text>
<circle cx="8.835376" cy="3.891014" r="0.035" fill="rgb(0,0,0)"/>
<text x="8.835376" y="4.083014" fill="rgb(0,0,0)" font-family="monospace" font-size="0.12" text-anchor="middle">R</text>
</g>
<g id="P17_strings">
<line x1="3.67448" y1="9.920811" x2="5.216351" y2="9.406922" stroke="rgb(0,0,0)" stroke-width="0.01" fill="none"/>
<text x="4.445415" y="9.563866" fill="rgb(0,0,0)" font-family="monospace" font-size="0.16" text-anchor="middle">P17</text>
<circle cx="3.67448" cy="9.920811" r="0.035" fill="rgb(0,0,0)"/>
<text x="3.67448" y="10.112811" fill="rgb(0,0,0)" font-family="monospace" font-size="0.12" text-anchor="middle">L</text>
<circle cx="5.216351" cy="9.406922" r="0.035" fill="rgb(0,0,0)"/>
<text x="5.216351" y="9.598922" fill="rgb(0,0,0)" font-family="monospace" font-size="0.12" text-anchor="middle">R</text>
</g>
<g id="P18_strings">
<line x1="4.497381" y1="1.708998" x2="5.338625" y2="1.483588" stroke="rgb(0,0,0)" stroke-width="0.01" fill="none"/>
<text x="4.918003" y="1.496293" fill="rgb(0,0,0)" font-family="monospace" font-size="0.16" text-anchor="middle">P18</text>
<circle cx="4.497381" cy="1.708998" r="0.035" fill="rgb(0,0,0)"/>
<text x="4.497381" y="1.900998" fill="rgb(0,0,0)" font-family="monospace" font-size="0.12" text-anchor="middle">L</text>
<circle cx="5.338625" cy="1.483588" r="0.035" fill="rgb(0,0,0)"/>
<text x="5.338625" y="1.675588" fill="rgb(0,0,0)" font-family="monospace" font-size="0.12" text-anchor="middle">R</text>
</g>
<g id="P19_strings">
<line x1="8.979588" y1="9.657901" x2="9.591983" y2="9.059971" stroke="rgb(0,0,0)" stroke-width="0.01" fill="none"/>
<text x="9.285785" y="9.258936" fill="rgb(0,0,0)" font-family="monospace" font-size="0.16" text-anchor="middle">P19</text>
<circle cx="8.979588" cy="9.657901" r="0.035" fill="rgb(0,0,0)"/>
<text x="8.979588" y="9.849901" fill="rgb(0,0,0)" font-family="monospace" font-size="0.12" text-anchor="middle">L</text>
<circle cx="9.591983" cy="9.059971" r="0.035" fill="rgb(0,0,0)"/>
<text x="9.591983" y="9.251971" fill="rgb(0,0,0)" font-family="monospace" font-size="0.12" text-anchor="middle">R</text>
</g>
<g id="P20_strings">
<line x1="4.137428" y1="9.724806" x2="4.279119" y2="9.724806" stroke="rgb(0,0,0)" stroke-width="0.01" fill="none"/>
<text x="4.208273" y="9.624806" fill="rgb(0,0,0)" font-family="monospace" font-size="0.16" text-anchor="middle">P20</text>
<circle cx="4.137428" cy="9.724806" r="0.035" fill="rgb(0,0,0)"/>
<text x="4.137428" y="9.916806" fill="rgb(0,0,0)" font-family="monospace" font-size="0.12" text-anchor="middle">L</text>
<circle cx="4.279119" cy="9.724806" r="0.035" fill="rgb(0,0,0)"/>
<text x="4.279119" y="9.916806" fill="rgb(0,0,0)" font-family="monospace" font-size="0.12" text-anchor="middle">R</text>
</g>
</svg>
