<?xml version="1.0" encoding="UTF-8"?>
<svg xmlns="http://www.w3.org/2000/svg" width="12in" height="19.687246in" viewBox="0 0 12 19.687246">
<g id="P01">
<path d="M 1.00988 0.839283 C 1.190044 0.828871 1.699236 1.033122 1.794335 0.856571 C 1.889434 0.680019 1.920573 0.380981 1.911062 0.355125 C 1.901551 0.329268 0.407004 0.403768 0.367351 0.517399 C 0.327698 0.631031 0.364854 0.75827 0.39103 0.811431 C 0.417207 0.864593 0.829715 0.849694 1.00988 0.839283 Z" fill="none" stroke="rgb(255,0,0)" stroke-width="0.01"/>
<text x="1.131347" y="0.639353" fill="rgb(0,0,0)" font-family="monospace" font-size="0.16" font-weight="bold" text-anchor="middle" dominant-baseline="middle">P01</text>
<circle cx="0.763681" cy="0.626893" r="0.035" fill="rgb(0,0,0)"/>
<text x="0.763681" y="0.542893" fill="rgb(0,0,0)" font-family="monospace" font-size="0.12" text-anchor="middle">L</text>
<circle cx="1.54502" cy="0.5027" r="0.035" fill="rgb(0,0,0)"/>
<text x="1.54502" y="0.4187" fill="rgb(0,0,0)" font-family="monospace" font-size="0.12" text-anchor="middle">R</text>
<text x="1.131347" y="1.108706" fill="rgb(0,0,0)" font-family="monospace" font-size="0.12" text-anchor="middle">P01</text>
</g>
<g id="P02">
<path d="M 3.160711 3.957442 C 3.75557 4.565106 5.365971 3.984009 5.74559 3.212628 C 6.125209 2.441247 6.00814 1.596396 5.798968 1.222872 C 5.589797 0.849347 3.264453 0.127168 2.770192 0.416879 C 2.275931 0.70659 1.754094 1.607442 3.241283 2.008188 C 4.728472 2.408935 2.565851 3.349778 3.160711 3.957442 Z" fill="none" stroke="rgb(255,0,0)" stroke-width="0.01"/>
<text x="4.128194" y="2.280227" fill="rgb(0,0,0)" font-family="monospace" font-size="0.16" font-weight="bold" text-anchor="middle" dominant-baseline="middle">P02</text>
<circle cx="3.271233" cy="1.665083" r="0.035" fill="rgb(0,0,0)"/>
<text x="3.271233" y="1.581083" fill="rgb(0,0,0)" font-family="monospace" font-size="0.12" text-anchor="middle">L</text>
<circle cx="5.136733" cy="2.147413" r="0.035" fill="rgb(0,0,0)"/>
<text x="5.136733" y="2.063413" fill="rgb(0,0,0)" font-family="monospace" font-size="0.12" text-anchor="middle">R</text>
<text x="4.128194" y="4.390454" fill="rgb(0,0,0)" font-family="monospace" font-size="0.12" text-anchor="middle">P02</text>
</g>
<g id="P03">
<path d="M 7.099027 2.629419 C 7.216426 2.584806 8.648299 2.366911 8.690304 2.295144 C 8.732308 2.223377 7.838382 0.363057 7.466487 0.350322 C 7.094593 0.337586 6.497289 0.70432 6.427998 0.788928 C 6.358707 0.873536 6.237977 1.593909 6.531989 2.039853 C 6.826001 2.485796 6.981628 2.674033 7.099027 2.629419 Z" fill="none" stroke="rgb(255,0,0)" stroke-width="0.01"/>
<text x="7.517643" y="1.492903" fill="rgb(0,0,0)" font-family="monospace" font-size="0.16" font-weight="bold" text-anchor="middle" dominant-baseline="middle">P03</text>
<circle cx="6.867272" cy="1.415717" r="0.035" fill="rgb(0,0,0)"/>
<text x="6.867272" y="1.331717" fill="rgb(0,0,0)" font-family="monospace" font-size="0.12" text-anchor="middle">L</text>
<circle cx="8.041167" cy="1.917916" r="0.035" fill="rgb(0,0,0)"/>
<text x="8.041167" y="1.833916" fill="rgb(0,0,0)" font-family="monospace" font-size="0.12" text-anchor="middle">R</text>
<text x="7.517643" y="2.815807" fill="rgb(0,0,0)" font-family="monospace" font-size="0.12" text-anchor="middle">P03</text>
</g>
<g id="P04">
<path d="M 9.979484 2.590516 C 10.42036 2.664922 10.847815 2.501488 11.130853 1.849538 C 11.41389 1.197588 11.012276 0.48669 10.806545 0.366252 C 10.600815 0.245813 9.489745 0.829357 9.221803 0.975356 C 8.953861 1.121355 8.96803 1.108998 9.377404 1.831338 C 9.786777 2.553678 9.538608 2.516111 9.979484 2.590516 Z" fill="none" stroke="rgb(255,0,0)" stroke-width="0.01"/>
<text x="10.135055" y="1.478549" fill="rgb(0,0,0)" font-family="monospace" font-size="0.16" font-weight="bold" text-anchor="middle" dominant-baseline="middle">P04</text>
<circle cx="9.641313" cy="1.313678" r="0.035" fill="rgb(0,0,0)"/>
<text x="9.641313" y="1.229678" fill="rgb(0,0,0)" font-family="monospace" font-size="0.12" text-anchor="middle">L</text>
<circle cx="10.734775" cy="1.418096" r="0.035" fill="rgb(0,0,0)"/>
<text x="10.734775" y="1.334096" fill="rgb(0,0,0)" font-family="monospace" font-size="0.12" text-anchor="middle">R</text>
<text x="10.135055" y="2.787099" fill="rgb(0,0,0)" font-family="monospace" font-size="0.12" text-anchor="middle">P04</text>
</g>
<g id="P05">
<path d="M 0.730044 6.693943 C 0.951355 6.847562 1.704138 6.307859 1.83779 6.040968 C 1.971441 5.774076 1.408226 5.22909 1.261478 5.21459 C 1.11473 5.20009 1.025865 5.221956 1.012873 5.308304 C 0.999881 5.394653 0.353016 5.900671 0.35002 6.024641 C 0.347024 6.14861 0.508733 6.540324 0.730044 6.693943 Z" fill="none" stroke="rgb(255,0,0)" stroke-width="0.01"/>
<text x="1.104046" y="5.965696" fill="rgb(0,0,0)" font-family="monospace" font-size="0.16" font-weight="bold" text-anchor="middle" dominant-baseline="middle">P05</text>
<circle cx="0.72735" cy="6.005856" r="0.035" fill="rgb(0,0,0)"/>
<text x="0.72735" y="5.921856" fill="rgb(0,0,0)" font-family="monospace" font-size="0.12" text-anchor="middle">L</text>
<circle cx="1.481301" cy="5.973155" r="0.035" fill="rgb(0,0,0)"/>
<text x="1.481301" y="5.889155" fill="rgb(0,0,0)" font-family="monospace" font-size="0.12" text-anchor="middle">R</text>
<text x="1.104046" y="6.900937" fill="rgb(0,0,0)" font-family="monospace" font-size="0.12" text-anchor="middle">P05</text>
</g>
<g id="P06">
<path d="M 4.831025 6.454426 C 5.236502 5.997536 5.049653 5.911394 4.709076 5.802774 C 4.368499 5.694153 3.726597 5.320286 3.703218 5.313602 C 3.679838 5.306918 2.240132 5.206037 2.212324 5.210591 C 2.184517 5.215146 2.291836 6.14128 2.565994 6.467946 C 2.840152 6.794612 4.425547 6.911316 4.831025 6.454426 Z" fill="none" stroke="rgb(255,0,0)" stroke-width="0.01"/>
<text x="3.634714" y="5.983367" fill="rgb(0,0,0)" font-family="monospace" font-size="0.16" font-weight="bold" text-anchor="middle" dominant-baseline="middle">P06</text>
<circle cx="2.868606" cy="5.624121" r="0.035" fill="rgb(0,0,0)"/>
<text x="2.868606" y="5.540121" fill="rgb(0,0,0)" font-family="monospace" font-size="0.12" text-anchor="middle">L</text>
<circle cx="4.295227" cy="6.034057" r="0.035" fill="rgb(0,0,0)"/>
<text x="4.295227" y="5.950057" fill="rgb(0,0,0)" font-family="monospace" font-size="0.12" text-anchor="middle">R</text>
<text x="3.634714" y="6.936279" fill="rgb(0,0,0)" font-family="monospace" font-size="0.12" text-anchor="middle">P06</text>
</g>
<g id="P07">
<path d="M 5.432503 6.325555 C 5.484745 6.354971 6.193511 6.149588 6.233393 6.100651 C 6.273276 6.051713 6.046068 5.235894 5.994199 5.215593 C 5.94233 5.195293 5.991968 5.234104 5.878462 5.349733 C 5.764956 5.465362 5.451057 6.111639 5.445782 6.238582 C 5.440507 6.365525 5.380262 6.296139 5.432503 6.325555 Z" fill="none" stroke="rgb(255,0,0)" stroke-width="0.01"/>
<text x="5.824699" y="5.769434" fill="rgb(0,0,0)" font-family="monospace" font-size="0.16" font-weight="bold" text-anchor="middle" dominant-baseline="middle">P07</text>
<circle cx="5.64034" cy="6.091484" r="0.035" fill="rgb(0,0,0)"/>
<text x="5.64034" y="6.007484" fill="rgb(0,0,0)" font-family="monospace" font-size="0.12" text-anchor="middle">L</text>
<circle cx="6.05362" cy="5.966503" r="0.035" fill="rgb(0,0,0)"/>
<text x="6.05362" y="5.882503" fill="rgb(0,0,0)" font-family="monospace" font-size="0.12" text-anchor="middle">R</text>
<text x="5.824699" y="6.508414" fill="rgb(0,0,0)" font-family="monospace" font-size="0.12" text-anchor="middle">P07</text>
</g>
<g id="P08">
<path d="M 6.787966 5.578088 C 6.811264 5.572326 7.166523 5.754583 7.206061 5.657035 C 7.2456 5.559487 7.168899 5.411961 7.040942 5.316882 C 6.912986 5.221803 6.787797 5.203522 6.764617 5.212479 C 6.741436 5.221436 6.604116 5.350044 6.588895 5.499316 C 6.573675 5.648589 6.764668 5.583851 6.787966 5.578088 Z" fill="none" stroke="rgb(255,0,0)" stroke-width="0.01"/>
<text x="6.902269" y="5.448118" fill="rgb(0,0,0)" font-family="monospace" font-size="0.16" font-weight="bold" text-anchor="middle" dominant-baseline="middle">P08</text>
<circle cx="6.744395" cy="5.485874" r="0.035" fill="rgb(0,0,0)"/>
<text x="6.744395" y="5.401874" fill="rgb(0,0,0)" font-family="monospace" font-size="0.12" text-anchor="middle">L</text>
<circle cx="7.0586" cy="5.528312" r="0.035" fill="rgb(0,0,0)"/>
<text x="7.0586" y="5.444312" fill="rgb(0,0,0)" font-family="monospace" font-size="0.12" text-anchor="middle">R</text>
<text x="6.902269" y="5.865781" fill="rgb(0,0,0)" font-family="monospace" font-size="0.12" text-anchor="middle">P08</text>
</g>
<g id="P09">
<path d="M 10.344934 8.233683 C 10.99753 8.043947 11.51215 7.092548 11.5259 6.689503 C 11.53965 6.286459 11.060213 5.235314 11.038447 5.211079 C 11.016682 5.186844 8.788607 5.868479 8.177335 5.777112 C 7.566064 5.685745 7.451483 7.279638 7.666378 7.647197 C 7.881273 8.014755 9.692337 8.423418 10.344934 8.233683 Z" fill="none" stroke="rgb(255,0,0)" stroke-width="0.01"/>
<text x="9.546332" y="6.746092" fill="rgb(0,0,0)" font-family="monospace" font-size="0.16" font-weight="bold" text-anchor="middle" dominant-baseline="middle">P09</text>
<circle cx="8.575351" cy="6.929352" r="0.035" fill="rgb(0,0,0)"/>
<text x="8.575351" y="6.845352" fill="rgb(0,0,0)" font-family="monospace" font-size="0.12" text-anchor="middle">L</text>
<circle cx="10.555029" cy="6.75801" r="0.035" fill="rgb(0,0,0)"/>
<text x="10.555029" y="6.67401" fill="rgb(0,0,0)" font-family="monospace" font-size="0.12" text-anchor="middle">R</text>
<text x="9.546332" y="8.46173" fill="rgb(0,0,0)" font-family="monospace" font-size="0.12" text-anchor="middle">P09</text>
</g>
<g id="P10">
<path d="M 0.939175 11.386566 C 0.963425 11.3844 4.434627 10.854604 4.524582 10.597734 C 4.614537 10.340864 3.723231 9.495901 3.123011 9.325966 C 2.522792 9.15603 4.448257 9.521522 2.388102 9.646111 C 0.327947 9.7707 0.317645 10.154198 0.359275 10.343791 C 0.400904 10.533384 0.914924 11.388733 0.939175 11.386566 Z" fill="none" stroke="rgb(255,0,0)" stroke-width="0.01"/>
<text x="2.440447" y="10.334148" fill="rgb(0,0,0)" font-family="monospace" font-size="0.16" font-weight="bold" text-anchor="middle" dominant-baseline="middle">P10</text>
<circle cx="1.343052" cy="10.335394" r="0.035" fill="rgb(0,0,0)"/>
<text x="1.343052" y="10.251394" fill="rgb(0,0,0)" font-family="monospace" font-size="0.12" text-anchor="middle">L</text>
<circle cx="3.433182" cy="10.474643" r="0.035" fill="rgb(0,0,0)"/>
<text x="3.433182" y="10.390643" fill="rgb(0,0,0)" font-family="monospace" font-size="0.12" text-anchor="middle">R</text>
<text x="2.440447" y="11.566566" fill="rgb(0,0,0)" font-family="monospace" font-size="0.12" text-anchor="middle">P10</text>
</g>
<g id="P11">
<path d="M 6.329766 10.676601 C 6.551559 10.357738 7.085514 11.369086 7.201684 11.009858 C 7.317853 10.650631 6.676275 9.323266 6.614579 9.28475 C 6.552882 9.246234 5.643001 9.576947 5.336869 9.914666 C 5.030738 10.252386 4.529432 11.338832 5.253205 11.694516 C 5.976977 12.0502 6.107972 10.995464 6.329766 10.676601 Z" fill="none" stroke="rgb(255,0,0)" stroke-width="0.01"/>
<text x="6.048284" y="10.524297" fill="rgb(0,0,0)" font-family="monospace" font-size="0.16" font-weight="bold" text-anchor="middle" dominant-baseline="middle">P11</text>
<circle cx="5.41997" cy="10.788111" r="0.035" fill="rgb(0,0,0)"/>
<text x="5.41997" y="10.704111" fill="rgb(0,0,0)" font-family="monospace" font-size="0.12" text-anchor="middle">L</text>
<circle cx="6.587263" cy="10.698639" r="0.035" fill="rgb(0,0,0)"/>
<text x="6.587263" y="10.614639" fill="rgb(0,0,0)" font-family="monospace" font-size="0.12" text-anchor="middle">R</text>
<text x="6.048284" y="11.946864" fill="rgb(0,0,0)" font-family="monospace" font-size="0.12" text-anchor="middle">P11</text>
</g>
<g id="P12">
<path d="M 8.432034 10.325318 C 9.510473 9.150777 10.346071 11.761693 10.378457 11.743932 C 10.410843 11.726172 10.497257 10.873067 10.092563 10.71817 C 9.68787 10.563273 9.616759 9.090883 8.579054 9.302387 C 7.541349 9.513891 8.53049 11.511058 7.958937 11.927806 C 7.387384 12.344555 7.353595 11.499858 8.432034 10.325318 Z" fill="none" stroke="rgb(255,0,0)" stroke-width="0.01"/>
<text x="8.987339" y="10.65868" fill="rgb(0,0,0)" font-family="monospace" font-size="0.16" font-weight="bold" text-anchor="middle" dominant-baseline="middle">P12</text>
<circle cx="8.559322" cy="10.619756" r="0.035" fill="rgb(0,0,0)"/>
<text x="8.559322" y="10.535756" fill="rgb(0,0,0)" font-family="monospace" font-size="0.12" text-anchor="middle">L</text>
<circle cx="9.980953" cy="10.431735" r="0.035" fill="rgb(0,0,0)"/>
<text x="9.980953" y="10.347735" fill="rgb(0,0,0)" font-family="monospace" font-size="0.12" text-anchor="middle">R</text>
<text x="8.987339" y="12.215629" fill="rgb(0,0,0)" font-family="monospace" font-size="0.12" text-anchor="middle">P12</text>
</g>
<g id="P13">
<path d="M 1.308642 15.634443 C 1.795445 15.76714 2.31404 14.169516 2.60752 13.831974 C 2.901 13.494431 3.089994 13.416921 2.938622 13.230108 C 2.787251 13.043296 0.876971 12.902241 0.575928 13.241451 C 0.274885 13.58066 0.171477 14.126148 0.930917 14.540627 C 1.690358 14.955107 0.821839 15.501745 1.308642 15.634443 Z" fill="none" stroke="rgb(255,0,0)" stroke-width="0.01"/>
<text x="1.671009" y="14.338817" fill="rgb(0,0,0)" font-family="monospace" font-size="0.16" font-weight="bold" text-anchor="middle" dominant-baseline="middle">P13</text>
<circle cx="0.962912" cy="13.888689" r="0.035" fill="rgb(0,0,0)"/>
<text x="0.962912" y="13.804689" fill="rgb(0,0,0)" font-family="monospace" font-size="0.12" text-anchor="middle">L</text>
<circle cx="2.283921" cy="13.678003" r="0.035" fill="rgb(0,0,0)"/>
<text x="2.283921" y="13.594003" fill="rgb(0,0,0)" font-family="monospace" font-size="0.12" text-anchor="middle">R</text>
<text x="1.671009" y="15.822005" fill="rgb(0,0,0)" font-family="monospace" font-size="0.12" text-anchor="middle">P13</text>
</g>
<g id="P14">
<path d="M 3.786525 13.87929 C 3.809115 13.887397 4.561821 13.683886 4.578446 13.663015 C 4.595071 13.642144 4.727243 13.101937 4.705901 13.090959 C 4.684559 13.07998 3.468043 13.033308 3.444164 13.035714 C 3.420285 13.038119 3.330053 13.194324 3.343337 13.304244 C 3.356621 13.414163 3.763936 13.871183 3.786525 13.87929 Z" fill="none" stroke="rgb(255,0,0)" stroke-width="0.01"/>
<text x="4.025119" y="13.457573" fill="rgb(0,0,0)" font-family="monospace" font-size="0.16" font-weight="bold" text-anchor="middle" dominant-baseline="middle">P14</text>
<circle cx="3.681644" cy="13.341222" r="0.035" fill="rgb(0,0,0)"/>
<text x="3.681644" y="13.257222" fill="rgb(0,0,0)" font-family="monospace" font-size="0.12" text-anchor="middle">L</text>
<circle cx="4.36472" cy="13.249133" r="0.035" fill="rgb(0,0,0)"/>
<text x="4.36472" y="13.165133" fill="rgb(0,0,0)" font-family="monospace" font-size="0.12" text-anchor="middle">R</text>
<text x="4.025119" y="14.059517" fill="rgb(0,0,0)" font-family="monospace" font-size="0.12" text-anchor="middle">P14</text>
</g>
<g id="P15">
<path d="M 6.101774 14.726538 C 7.043106 14.669306 6.270219 14.609601 6.292977 14.60198 C 6.315735 14.594359 7.805506 13.540523 7.311484 13.239626 C 6.817462 12.93873 6.621979 12.892397 5.968352 13.647734 C 5.314725 14.403072 5.04253 14.343483 5.058907 14.532693 C 5.075284 14.721903 5.160442 14.783771 6.101774 14.726538 Z" fill="none" stroke="rgb(255,0,0)" stroke-width="0.01"/>
<text x="6.235013" y="13.891338" fill="rgb(0,0,0)" font-family="monospace" font-size="0.16" font-weight="bold" text-anchor="middle" dominant-baseline="middle">P15</text>
<circle cx="5.687533" cy="14.235772" r="0.035" fill="rgb(0,0,0)"/>
<text x="5.687533" y="14.151772" fill="rgb(0,0,0)" font-family="monospace" font-size="0.12" text-anchor="middle">L</text>
<circle cx="6.863884" cy="13.692424" r="0.035" fill="rgb(0,0,0)"/>
<text x="6.863884" y="13.608424" fill="rgb(0,0,0)" font-family="monospace" font-size="0.12" text-anchor="middle">R</text>
<text x="6.235013" y="14.927047" fill="rgb(0,0,0)" font-family="monospace" font-size="0.12" text-anchor="middle">P15</text>
</g>
<g id="P16">
<path d="M 8.606172 14.994743 C 8.844108 15.094714 9.983573 14.858578 10.001364 14.824917 C 10.019156 14.791256 10.124217 13.325815 9.641108 13.132334 C 9.157999 12.938853 7.885681 13.091724 7.863373 13.113911 C 7.841064 13.136098 7.735529 13.592623 7.767918 13.874962 C 7.800306 14.157301 8.368235 14.894771 8.606172 14.994743 Z" fill="none" stroke="rgb(255,0,0)" stroke-width="0.01"/>
<text x="8.892509" y="14.027434" fill="rgb(0,0,0)" font-family="monospace" font-size="0.16" font-weight="bold" text-anchor="middle" dominant-baseline="middle">P16</text>
<circle cx="8.348748" cy="13.871666" r="0.035" fill="rgb(0,0,0)"/>
<text x="8.348748" y="13.787666" fill="rgb(0,0,0)" font-family="monospace" font-size="0.12" text-anchor="middle">L</text>
<circle cx="9.479452" cy="14.186848" r="0.035" fill="rgb(0,0,0)"/>
<text x="9.479452" y="14.102848" fill="rgb(0,0,0)" font-family="monospace" font-size="0.12" text-anchor="middle">R</text>
<text x="8.892509" y="15.199238" fill="rgb(0,0,0)" font-family="monospace" font-size="0.12" text-anchor="middle">P16</text>
</g>
<g id="P17">
<path d="M 2.876011 18.656476 C 2.899293 18.65065 3.534738 17.78441 3.583278 17.494962 C 3.631818 17.205514 3.587915 16.845991 3.321999 16.708256 C 3.056082 16.57052 2.157919 16.61536 1.129727 17.154129 C 0.101534 17.692899 0.26513 18.116395 0.632082 18.456244 C 0.999035 18.796093 2.852729 18.662301 2.876011 18.656476 Z" fill="none" stroke="rgb(255,0,0)" stroke-width="0.01"/>
<text x="1.975253" y="17.664626" fill="rgb(0,0,0)" font-family="monospace" font-size="0.16" font-weight="bold" text-anchor="middle" dominant-baseline="middle">P17</text>
<circle cx="1.211168" cy="17.840121" r="0.035" fill="rgb(0,0,0)"/>
<text x="1.211168" y="17.756121" fill="rgb(0,0,0)" font-family="monospace" font-size="0.12" text-anchor="middle">L</text>
<circle cx="2.836421" cy="17.509368" r="0.035" fill="rgb(0,0,0)"/>
<text x="2.836421" y="17.425368" fill="rgb(0,0,0)" font-family="monospace" font-size="0.12" text-anchor="middle">R</text>
<text x="1.975253" y="18.867246" fill="rgb(0,0,0)" font-family="monospace" font-size="0.12" text-anchor="middle">P17</text>
</g>
<g id="P18">
<path d="M 5.081217 18.002678 C 5.561373 18.121868 5.787583 18.107548 5.470797 17.806024 C 5.154012 17.504499 5.84027 16.9519 5.662554 16.776469 C 5.484837 16.601039 4.545724 16.539528 4.230528 16.955677 C 3.915332 17.371826 3.907079 17.35933 4.007455 17.47545 C 4.107832 17.59157 4.601062 17.883489 5.081217 18.002678 Z" fill="none" stroke="rgb(255,0,0)" stroke-width="0.01"/>
<text x="4.821425" y="17.357171" fill="rgb(0,0,0)" font-family="monospace" font-size="0.16" font-weight="bold" text-anchor="middle" dominant-baseline="middle">P18</text>
<circle cx="4.419996" cy="17.338948" r="0.035" fill="rgb(0,0,0)"/>
<text x="4.419996" y="17.254948" fill="rgb(0,0,0)" font-family="monospace" font-size="0.12" text-anchor="middle">L</text>
<circle cx="5.290916" cy="17.078972" r="0.035" fill="rgb(0,0,0)"/>
<text x="5.290916" y="16.994972" fill="rgb(0,0,0)" font-family="monospace" font-size="0.12" text-anchor="middle">R</text>
<text x="4.821425" y="18.252337" fill="rgb(0,0,0)" font-family="monospace" font-size="0.12" text-anchor="middle">P18</text>
</g>
<g id="P19">
<path d="M 6.44285 17.658239 C 6.715189 17.62567 7.743281 17.407658 7.754178 17.384862 C 7.765076 17.362066 7.418191 16.724177 7.250545 16.650743 C 7.0829 16.577309 6.518357 16.987782 6.305605 17.069795 C 6.092853 17.151808 6.059797 17.171112 6.043578 17.266614 C 6.02736 17.362117 6.170511 17.690807 6.44285 17.658239 Z" fill="none" stroke="rgb(255,0,0)" stroke-width="0.01"/>
<text x="6.898387" y="17.151252" fill="rgb(0,0,0)" font-family="monospace" font-size="0.16" font-weight="bold" text-anchor="middle" dominant-baseline="middle">P19</text>
<circle cx="6.467327" cy="17.245538" r="0.035" fill="rgb(0,0,0)"/>
<text x="6.467327" y="17.161538" fill="rgb(0,0,0)" font-family="monospace" font-size="0.12" text-anchor="middle">L</text>
<circle cx="7.323217" cy="17.294414" r="0.035" fill="rgb(0,0,0)"/>
<text x="7.323217" y="17.210414" fill="rgb(0,0,0)" font-family="monospace" font-size="0.12" text-anchor="middle">R</text>
<text x="6.898387" y="17.840498" fill="rgb(0,0,0)" font-family="monospace" font-size="0.12" text-anchor="middle">P19</text>
</g>
<g id="P20">
<path d="M 8.24612 16.910333 C 8.362366 16.910333 8.324324 16.937973 8.360246 16.827415 C 8.396169 16.716858 8.4107 16.761579 8.316654 16.693251 C 8.222608 16.624923 8.269631 16.624923 8.175585 16.693251 C 8.08154 16.761579 8.096071 16.716858 8.131993 16.827415 C 8.167915 16.937973 8.129873 16.910333 8.24612 16.910333 Z" fill="none" stroke="rgb(255,0,0)" stroke-width="0.01"/>
<text x="8.24612" y="16.777704" fill="rgb(0,0,0)" font-family="monospace" font-size="0.16" font-weight="bold" text-anchor="middle" dominant-baseline="middle">P20</text>
<circle cx="8.175274" cy="16.769668" r="0.035" fill="rgb(0,0,0)"/>
<text x="8.175274" y="16.685668" fill="rgb(0,0,0)" font-family="monospace" font-size="0.12" text-anchor="middle">L</text>
<circle cx="8.316965" cy="16.769668" r="0.035" fill="rgb(0,0,0)"/>
<text x="8.316965" y="16.685668" fill="rgb(0,0,0)" font-family="monospace" font-size="0.12" text-anchor="middle">R</text>
<text x="8.24612" y="17.093402" fill="rgb(0,0,0)" font-family="monospace" font-size="0.12" text-anchor="middle">P20</text>
</g>
</svg>
