<?xml version="1.0" encoding="UTF-8"?>
<svg xmlns="http://www.w3.org/2000/svg" width="12in" height="19.6859in" viewBox="0 0 12 19.6859">
<g id="P01">
<polygon points="1.0099,0.8393 1.0277,0.8389 1.0473,0.8397 1.0686,0.8415 1.0914,0.8443 1.1156,0.8478 1.141,0.8521 1.1676,0.857 1.1951,0.8624 1.2234,0.8682 1.2525,0.8742 1.2821,0.8804 1.3122,0.8867 1.3425,0.8929 1.3731,0.899 1.4036,0.9048 1.434,0.9102 1.4642,0.9151 1.494,0.9195 1.5232,0.9231 1.5518,0.9259 1.5797,0.9278 1.6065,0.9287 1.6324,0.9284 1.657,0.9269 1.6803,0.924 1.7021,0.9196 1.7223,0.9137 1.7407,0.9061 1.7573,0.8967 1.7718,0.8853 1.7842,0.872 1.7943,0.8566 1.8031,0.8397 1.8114,0.8221 1.8194,0.804 1.827,0.7854 1.8343,0.7663 1.8412,0.7469 1.8478,0.7273 1.854,0.7074 1.8599,0.6873 1.8655,0.6672 1.8707,0.6471 1.8756,0.6271 1.8801,0.6073 1.8844,0.5876 1.8883,0.5683 1.8919,0.5493 1.8952,0.5308 1.8983,0.5128 1.901,0.4954 1.9034,0.4786 1.9055,0.4625 1.9074,0.4473 1.9089,0.433 1.9102,0.4195 1.9112,0.4072 1.912,0.3959 1.9125,0.3857 1.9127,0.3768 1.9126,0.3693 1.9124,0.3631 1.9118,0.3583 1.9111,0.3551 1.9059,0.353 1.8926,0.3514 1.8717,0.3504 1.8436,0.35 1.8091,0.3501 1.7685,0.3507 1.7224,0.3519 1.6714,0.3536 1.616,0.3557 1.5568,0.3584 1.4942,0.3615 1.4289,0.3651 1.3613,0.3692 1.292,0.3737 1.2216,0.3786 1.1505,0.3839 1.0793,0.3897 1.0086,0.3958 0.9389,0.4024 0.8707,0.4093 0.8046,0.4166 0.741,0.4242 0.6807,0.4322 0.6239,0.4405 0.5715,0.4491 0.5237,0.458 0.4813,0.4672 0.4447,0.4767 0.4144,0.4865 0.3911,0.4966 0.3752,0.5068 0.3674,0.5174 0.3639,0.5281 0.3608,0.5388 0.3582,0.5496 0.3559,0.5605 0.3541,0.5713 0.3526,0.5822 0.3514,0.593 0.3506,0.6038 0.3502,0.6145 0.35,0.6252 0.3501,0.6358 0.3505,0.6463 0.3512,0.6567 0.3521,0.667 0.3532,0.6771 0.3545,0.6871 0.356,0.6969 0.3577,0.7064 0.3596,0.7158 0.3616,0.725 0.3637,0.7339 0.366,0.7426 0.3683,0.7509 0.3707,0.759 0.3732,0.7668 0.3757,0.7743 0.3783,0.7814 0.3809,0.7882 0.3835,0.7946 0.386,0.8006 0.3885,0.8062 0.391,0.8114 0.3946,0.8162 0.4003,0.8206 0.4081,0.8246 0.4177,0.8283 0.4292,0.8316 0.4424,0.8346 0.4572,0.8373 0.4734,0.8397 0.491,0.8417 0.5099,0.8435 0.5298,0.8451 0.5508,0.8463 0.5727,0.8474 0.5954,0.8482 0.6188,0.8488 0.6427,0.8492 0.6671,0.8494 0.6918,0.8494 0.7167,0.8493 0.7418,0.849 0.7669,0.8487 0.7918,0.8481 0.8165,0.8475 0.8409,0.8468 0.8648,0.846 0.8881,0.8451 0.9108,0.8442 0.9326,0.8432 0.9536,0.8423 0.9735,0.8413 0.9923,0.8403" fill="none" stroke="rgb(255,0,0)" stroke-width="0.01"/>
<text x="1.1313" y="0.6393" fill="rgb(0,0,0)" font-family="monospace" font-size="0.16" font-weight="bold" text-anchor="middle" dominant-baseline="middle">P01</text>
<circle cx="0.7637" cy="0.6269" r="0.035" fill="rgb(0,0,0)"/>
<text x="0.7637" y="0.5429" fill="rgb(0,0,0)" font-family="monospace" font-size="0.12" text-anchor="middle">L</text>
<circle cx="1.545" cy="0.5027" r="0.035" fill="rgb(0,0,0)"/>
<text x="1.545" y="0.4187" fill="rgb(0,0,0)" font-family="monospace" font-size="0.12" text-anchor="middle">R</text>
<text x="1.1313" y="1.1087" fill="rgb(0,0,0)" font-family="monospace" font-size="0.12" text-anchor="middle">P01</text>
</g>
<g id="P02">
<polygon points="3.1607,3.9574 3.2194,4.011 3.2836,4.0577 3.3529,4.0978 3.427,4.1315 3.5053,4.159 3.5876,4.1805 3.6733,4.196 3.7622,4.2059 3.8536,4.2103 3.9473,4.2093 4.0429,4.2032 4.1399,4.1922 4.2379,4.1764 4.3365,4.156 4.4353,4.1312 4.5338,4.1022 4.6318,4.0691 4.7287,4.0322 4.8241,3.9916 4.9177,3.9475 5.009,3.9001 5.0977,3.8496 5.1832,3.7961 5.2652,3.7399 5.3433,3.6811 5.417,3.6199 5.4861,3.5565 5.5499,3.491 5.6082,3.4237 5.6605,3.3548 5.7064,3.2844 5.7456,3.2126 5.7797,3.1401 5.811,3.0673 5.8396,2.9942 5.8654,2.921 5.8887,2.8477 5.9094,2.7746 5.9276,2.7016 5.9435,2.6288 5.957,2.5565 5.9683,2.4846 5.9774,2.4132 5.9844,2.3426 5.9894,2.2727 5.9925,2.2036 5.9937,2.1356 5.9931,2.0686 5.9907,2.0027 5.9867,1.9381 5.9812,1.8749 5.9741,1.8132 5.9656,1.753 5.9557,1.6945 5.9446,1.6378 5.9322,1.5829 5.9188,1.53 5.9042,1.4791 5.8887,1.4304 5.8723,1.384 5.855,1.3399 5.837,1.2983 5.8183,1.2593 5.799,1.2229 5.7733,1.1869 5.7359,1.1491 5.6876,1.1097 5.629,1.0691 5.561,1.0274 5.4841,0.985 5.3992,0.9419 5.307,0.8986 5.2081,0.8552 5.1033,0.8121 4.9934,0.7693 4.879,0.7273 4.7609,0.6862 4.6398,0.6463 4.5164,0.6079 4.3915,0.5712 4.2657,0.5364 4.1398,0.5037 4.0145,0.4736 3.8906,0.4461 3.7687,0.4216 3.6495,0.4002 3.5339,0.3823 3.4225,0.3681 3.3161,0.3578 3.2153,0.3517 3.1209,0.35 3.0336,0.353 2.9542,0.361 2.8833,0.3741 2.8218,0.3926 2.7702,0.4169 2.7238,0.4458 2.6777,0.4781 2.6321,0.5136 2.5875,0.552 2.5442,0.5932 2.5027,0.637 2.4632,0.6831 2.4261,0.7314 2.3919,0.7816 2.3609,0.8336 2.3334,0.8872 2.3099,0.942 2.2907,0.998 2.2762,1.055 2.2667,1.1127 2.2627,1.1709 2.2645,1.2294 2.2724,1.2881 2.2869,1.3467 2.3083,1.405 2.3371,1.4628 2.3735,1.5199 2.4179,1.5761 2.4707,1.6312 2.5324,1.685 2.6032,1.7373 2.6835,1.7879 2.7738,1.8366 2.8743,1.8832 2.9855,1.9275 3.1077,1.9692 3.2413,2.0082 3.3702,2.0473 3.4789,2.0894 3.5686,2.1344 3.6404,2.1821 3.6955,2.2323 3.7351,2.2848 3.7604,2.3396 3.7724,2.3964 3.7725,2.4551 3.7618,2.5155 3.7414,2.5774 3.7125,2.6408 3.6763,2.7055 3.634,2.7712 3.5867,2.8378 3.5356,2.9052 3.4819,2.9732 3.4268,3.0417 3.3714,3.1104 3.3169,3.1793 3.2645,3.2482 3.2153,3.3168 3.1706,3.3851 3.1315,3.4529 3.0991,3.52 3.0747,3.5862 3.0594,3.6515 3.0544,3.7157 3.0608,3.7785 3.0799,3.8398 3.1128,3.8995" fill="none" stroke="rgb(255,0,0)" stroke-width="0.01"/>
<text x="4.1282" y="2.2801" fill="rgb(0,0,0)" font-family="monospace" font-size="0.16" font-weight="bold" text-anchor="middle" dominant-baseline="middle">P02</text>
<circle cx="3.2712" cy="1.6651" r="0.035" fill="rgb(0,0,0)"/>
<text x="3.2712" y="1.5811" fill="rgb(0,0,0)" font-family="monospace" font-size="0.12" text-anchor="middle">L</text>
<circle cx="5.1367" cy="2.1474" r="0.035" fill="rgb(0,0,0)"/>
<text x="5.1367" y="2.0634" fill="rgb(0,0,0)" font-family="monospace" font-size="0.12" text-anchor="middle">R</text>
<text x="4.1282" y="4.3903" fill="rgb(0,0,0)" font-family="monospace" font-size="0.12" text-anchor="middle">P02</text>
</g>
<g id="P03">
<polygon points="7.0989,2.6292 7.1137,2.6245 7.1357,2.6189 7.1644,2.6123 7.1993,2.605 7.2399,2.5968 7.2858,2.5879 7.3364,2.5784 7.3912,2.5682 7.4498,2.5575 7.5116,2.5464 7.5761,2.5347 7.643,2.5228 7.7115,2.5104 7.7814,2.4979 7.852,2.4851 7.9229,2.4722 7.9935,2.4593 8.0635,2.4463 8.1322,2.4333 8.1992,2.4205 8.2641,2.4078 8.3262,2.3953 8.3851,2.383 8.4404,2.3712 8.4914,2.3597 8.5378,2.3486 8.5791,2.338 8.6146,2.3281 8.644,2.3187 8.6667,2.31 8.6823,2.3021 8.6902,2.2949 8.6915,2.2831 8.6875,2.2614 8.6786,2.2306 8.665,2.1913 8.6469,2.1442 8.6248,2.0899 8.5987,2.0291 8.569,1.9626 8.536,1.8908 8.4999,1.8146 8.461,1.7346 8.4195,1.6514 8.3758,1.5657 8.33,1.4782 8.2825,1.3895 8.2335,1.3004 8.1833,1.2114 8.1322,1.1232 8.0804,1.0366 8.0281,0.9521 7.9758,0.8705 7.9235,0.7924 7.8716,0.7184 7.8204,0.6493 7.7701,0.5856 7.721,0.5282 7.6734,0.4775 7.6275,0.4344 7.5836,0.3994 7.5419,0.3733 7.5028,0.3566 7.4664,0.3501 7.4309,0.35 7.3942,0.352 7.3565,0.356 7.3179,0.3618 7.2784,0.3694 7.2384,0.3786 7.1979,0.3893 7.157,0.4014 7.1159,0.4147 7.0747,0.4291 7.0336,0.4446 6.9927,0.461 6.9521,0.4781 6.912,0.4959 6.8724,0.5142 6.8337,0.5329 6.7958,0.5519 6.759,0.5711 6.7233,0.5903 6.6889,0.6094 6.6559,0.6283 6.6246,0.6469 6.5949,0.6651 6.5671,0.6827 6.5413,0.6996 6.5176,0.7157 6.4962,0.7309 6.4772,0.745 6.4607,0.758 6.4469,0.7697 6.4359,0.78 6.4279,0.7887 6.4213,0.7985 6.4144,0.8118 6.4075,0.8285 6.4004,0.8485 6.3935,0.8715 6.3866,0.8974 6.3799,0.926 6.3736,0.9571 6.3676,0.9907 6.3621,1.0265 6.3572,1.0644 6.3529,1.1041 6.3493,1.1456 6.3465,1.1886 6.3446,1.233 6.3437,1.2787 6.3438,1.3254 6.3451,1.373 6.3477,1.4213 6.3515,1.4702 6.3568,1.5194 6.3636,1.5689 6.3719,1.6185 6.3819,1.6679 6.3936,1.7171 6.4072,1.7658 6.4227,1.814 6.4402,1.8613 6.4598,1.9077 6.4815,1.953 6.5055,1.997 6.5319,2.0396 6.5591,2.0807 6.5854,2.1202 6.611,2.1583 6.6359,2.1948 6.66,2.2299 6.6834,2.2635 6.706,2.2955 6.728,2.3262 6.7494,2.3553 6.7701,2.383 6.7901,2.4092 6.8096,2.4339 6.8284,2.4572 6.8467,2.479 6.8645,2.4994 6.8817,2.5184 6.8983,2.5359 6.9145,2.552 6.9302,2.5666 6.9455,2.5798 6.9603,2.5917 6.9746,2.602 6.9886,2.611 7.0022,2.6186 7.0154,2.6248 7.0282,2.6296 7.0407,2.633 7.0529,2.635 7.0648,2.6356 7.0765,2.6348 7.0878,2.6327" fill="none" stroke="rgb(255,0,0)" stroke-width="0.01"/>
<text x="7.5176" y="1.4928" fill="rgb(0,0,0)" font-family="monospace" font-size="0.16" font-weight="bold" text-anchor="middle" dominant-baseline="middle">P03</text>
<circle cx="6.8672" cy="1.4155" r="0.035" fill="rgb(0,0,0)"/>
<text x="6.8672" y="1.3315" fill="rgb(0,0,0)" font-family="monospace" font-size="0.12" text-anchor="middle">L</text>
<circle cx="8.0411" cy="1.9177" r="0.035" fill="rgb(0,0,0)"/>
<text x="8.0411" y="1.8337" fill="rgb(0,0,0)" font-family="monospace" font-size="0.12" text-anchor="middle">R</text>
<text x="7.5176" y="2.8156" fill="rgb(0,0,0)" font-family="monospace" font-size="0.12" text-anchor="middle">P03</text>
</g>
<g id="P04">
<polygon points="9.9794,2.5905 10.0206,2.5968 10.0618,2.6016 10.1029,2.605 10.1438,2.6068 10.1845,2.607 10.2251,2.6056 10.2654,2.6026 10.3055,2.5978 10.3452,2.5913 10.3847,2.5829 10.4239,2.5728 10.4628,2.5607 10.5012,2.5466 10.5393,2.5306 10.577,2.5126 10.6142,2.4924 10.651,2.4701 10.6873,2.4457 10.7231,2.419 10.7583,2.3901 10.793,2.3589 10.8271,2.3253 10.8606,2.2893 10.8934,2.2508 10.9256,2.2099 10.9571,2.1664 10.988,2.1203 11.0181,2.0716 11.0474,2.0202 11.076,1.9661 11.1038,1.9092 11.1307,1.8495 11.1553,1.7883 11.176,1.7268 11.193,1.6652 11.2065,1.6036 11.2166,1.5421 11.2235,1.4809 11.2274,1.42 11.2284,1.3597 11.2267,1.2999 11.2224,1.2409 11.2157,1.1827 11.2067,1.1255 11.1957,1.0693 11.1828,1.0144 11.1681,0.9608 11.1519,0.9086 11.1342,0.858 11.1152,0.809 11.0951,0.7618 11.0741,0.7166 11.0523,0.6734 11.0298,0.6323 11.0069,0.5935 10.9837,0.5571 10.9603,0.5233 10.937,0.492 10.9138,0.4635 10.891,0.4378 10.8687,0.4152 10.8471,0.3956 10.8263,0.3793 10.8064,0.3663 10.7845,0.357 10.7577,0.3516 10.7261,0.35 10.6902,0.3519 10.6503,0.357 10.6067,0.3652 10.5597,0.3763 10.5097,0.3901 10.4569,0.4063 10.4017,0.4247 10.3443,0.4452 10.2852,0.4676 10.2247,0.4915 10.163,0.5168 10.1004,0.5434 10.0374,0.5709 9.9742,0.5992 9.9111,0.6281 9.8484,0.6573 9.7866,0.6867 9.7259,0.7161 9.6665,0.7451 9.6089,0.7737 9.5534,0.8017 9.5002,0.8287 9.4498,0.8546 9.4024,0.8792 9.3583,0.9023 9.3178,0.9237 9.2814,0.9431 9.2492,0.9604 9.2217,0.9754 9.1974,0.9886 9.1748,1.0011 9.1538,1.013 9.1346,1.0244 9.1172,1.0356 9.1015,1.0467 9.0875,1.0578 9.0754,1.0691 9.0651,1.0808 9.0566,1.0931 9.05,1.1061 9.0452,1.1199 9.0424,1.1348 9.0415,1.1508 9.0425,1.1683 9.0455,1.1872 9.0505,1.2079 9.0574,1.2304 9.0664,1.2549 9.0775,1.2816 9.0906,1.3106 9.1058,1.3421 9.1231,1.3763 9.1426,1.4134 9.1642,1.4534 9.1879,1.4966 9.2139,1.5431 9.2421,1.5932 9.2725,1.6468 9.3051,1.7043 9.3401,1.7657 9.3773,1.8313 9.4138,1.8969 9.4467,1.9581 9.4762,2.0152 9.5026,2.0683 9.5261,2.1176 9.5471,2.1633 9.5656,2.2054 9.5821,2.2442 9.5966,2.2799 9.6095,2.3125 9.621,2.3423 9.6314,2.3694 9.6409,2.3939 9.6498,2.4161 9.6582,2.436 9.6665,2.4539 9.6749,2.4699 9.6836,2.4841 9.6929,2.4968 9.7031,2.5081 9.7143,2.5181 9.7268,2.527 9.7409,2.5349 9.7569,2.5421 9.7749,2.5486 9.7952,2.5547 9.818,2.5605 9.8437,2.5662 9.8724,2.5718 9.9044,2.5777 9.94,2.5838" fill="none" stroke="rgb(255,0,0)" stroke-width="0.01"/>
<text x="10.1349" y="1.4785" fill="rgb(0,0,0)" font-family="monospace" font-size="0.16" font-weight="bold" text-anchor="middle" dominant-baseline="middle">P04</text>
<circle cx="9.6412" cy="1.3137" r="0.035" fill="rgb(0,0,0)"/>
<text x="9.6412" y="1.2297" fill="rgb(0,0,0)" font-family="monospace" font-size="0.12" text-anchor="middle">L</text>
<circle cx="10.7346" cy="1.4181" r="0.035" fill="rgb(0,0,0)"/>
<text x="10.7346" y="1.3341" fill="rgb(0,0,0)" font-family="monospace" font-size="0.12" text-anchor="middle">R</text>
<text x="10.1349" y="2.787" fill="rgb(0,0,0)" font-family="monospace" font-size="0.12" text-anchor="middle">P04</text>
</g>
<g id="P05">
<polygon points="0.73,6.6938 0.7523,6.7062 0.7775,6.7147 0.8053,6.7195 0.8357,6.7208 0.8683,6.7187 0.903,6.7134 0.9395,6.7052 0.9777,6.6941 1.0173,6.6803 1.0581,6.6641 1.0999,6.6456 1.1425,6.625 1.1857,6.6025 1.2293,6.5782 1.2731,6.5523 1.3168,6.525 1.3602,6.4964 1.4032,6.4668 1.4455,6.4364 1.4869,6.4052 1.5272,6.3735 1.5662,6.3414 1.6037,6.3092 1.6394,6.277 1.6732,6.245 1.7049,6.2133 1.7342,6.1822 1.7609,6.1518 1.7848,6.1222 1.8057,6.0938 1.8235,6.0666 1.8378,6.0408 1.8483,6.015 1.8549,5.9877 1.8579,5.9591 1.8574,5.9292 1.8536,5.8984 1.8468,5.8667 1.8371,5.8342 1.8247,5.8011 1.8099,5.7676 1.7929,5.7338 1.7738,5.6998 1.7528,5.6659 1.7303,5.632 1.7063,5.5985 1.681,5.5654 1.6548,5.533 1.6277,5.5012 1.6,5.4703 1.5719,5.4405 1.5435,5.4119 1.5152,5.3846 1.4871,5.3587 1.4593,5.3345 1.4322,5.3121 1.4059,5.2916 1.3806,5.2732 1.3565,5.257 1.3338,5.2431 1.3128,5.2318 1.2936,5.2231 1.2764,5.2173 1.2615,5.2144 1.2479,5.2132 1.2346,5.2121 1.2217,5.2113 1.2092,5.2107 1.197,5.2104 1.1851,5.2103 1.1737,5.2104 1.1625,5.2108 1.1518,5.2114 1.1414,5.2123 1.1314,5.2135 1.1217,5.2149 1.1125,5.2166 1.1036,5.2186 1.0951,5.2209 1.087,5.2234 1.0793,5.2263 1.072,5.2295 1.065,5.2329 1.0585,5.2367 1.0524,5.2408 1.0467,5.2452 1.0414,5.2499 1.0365,5.255 1.0321,5.2604 1.028,5.2662 1.0244,5.2723 1.0212,5.2787 1.0185,5.2855 1.0162,5.2927 1.0143,5.3002 1.0129,5.3081 1.0098,5.3174 1.0033,5.329 0.9935,5.3428 0.9808,5.3586 0.9652,5.3763 0.9471,5.3957 0.9267,5.4166 0.9042,5.439 0.8799,5.4627 0.854,5.4876 0.8267,5.5134 0.7982,5.54 0.7688,5.5674 0.7388,5.5953 0.7083,5.6236 0.6777,5.6522 0.647,5.6809 0.6167,5.7095 0.5868,5.738 0.5576,5.7661 0.5294,5.7937 0.5024,5.8208 0.4769,5.847 0.453,5.8724 0.431,5.8967 0.4112,5.9197 0.3937,5.9414 0.3788,5.9616 0.3668,5.9802 0.3578,5.9969 0.3521,6.0117 0.35,6.0245 0.3502,6.0369 0.3513,6.0507 0.3534,6.066 0.3564,6.0825 0.3603,6.1003 0.365,6.1191 0.3706,6.139 0.377,6.1597 0.3842,6.1813 0.3922,6.2037 0.401,6.2267 0.4106,6.2502 0.4209,6.2742 0.4318,6.2986 0.4435,6.3232 0.4559,6.348 0.4689,6.3729 0.4826,6.3978 0.4969,6.4226 0.5117,6.4472 0.5272,6.4715 0.5432,6.4954 0.5598,6.5189 0.5769,6.5418 0.5944,6.5641 0.6125,6.5856 0.6311,6.6062 0.65,6.626 0.6694,6.6447 0.6893,6.6623 0.7095,6.6787" fill="none" stroke="rgb(255,0,0)" stroke-width="0.01"/>
<text x="1.104" y="5.9655" fill="rgb(0,0,0)" font-family="monospace" font-size="0.16" font-weight="bold" text-anchor="middle" dominant-baseline="middle">P05</text>
<circle cx="0.7273" cy="6.0057" r="0.035" fill="rgb(0,0,0)"/>
<text x="0.7273" y="5.9217" fill="rgb(0,0,0)" font-family="monospace" font-size="0.12" text-anchor="middle">L</text>
<circle cx="1.4813" cy="5.973" r="0.035" fill="rgb(0,0,0)"/>
<text x="1.4813" y="5.889" fill="rgb(0,0,0)" font-family="monospace" font-size="0.12" text-anchor="middle">R</text>
<text x="1.104" y="6.9008" fill="rgb(0,0,0)" font-family="monospace" font-size="0.12" text-anchor="middle">P05</text>
</g>
<g id="P06">
<polygon points="4.8308,6.4542 4.8671,6.4125 4.9,6.3728 4.9296,6.3352 4.956,6.2995 4.9792,6.2657 4.9993,6.2337 5.0165,6.2035 5.0307,6.1749 5.0422,6.148 5.0508,6.1225 5.0568,6.0985 5.0602,6.0759 5.0611,6.0546 5.0596,6.0345 5.0558,6.0156 5.0496,5.9978 5.0413,5.981 5.0309,5.9652 5.0184,5.9502 5.0041,5.936 4.9878,5.9226 4.9698,5.9098 4.95,5.8976 4.9286,5.886 4.9057,5.8748 4.8814,5.8639 4.8556,5.8533 4.8285,5.843 4.8003,5.8329 4.7708,5.8228 4.7404,5.8127 4.7089,5.8026 4.6761,5.7916 4.6417,5.7793 4.6059,5.7656 4.5688,5.7506 4.5307,5.7346 4.4916,5.7177 4.4518,5.6998 4.4113,5.6813 4.3705,5.6621 4.3294,5.6423 4.2882,5.6222 4.2471,5.6018 4.2063,5.5813 4.1659,5.5607 4.1261,5.5401 4.087,5.5198 4.0489,5.4997 4.0119,5.4801 3.9761,5.4609 3.9418,5.4425 3.909,5.4248 3.8781,5.4079 3.8491,5.3921 3.8222,5.3774 3.7975,5.3639 3.7753,5.3517 3.7558,5.341 3.739,5.3319 3.7252,5.3244 3.7144,5.3188 3.707,5.3151 3.703,5.3134 3.6968,5.3125 3.6827,5.3111 3.6614,5.3092 3.6334,5.3069 3.5991,5.3041 3.5591,5.301 3.514,5.2976 3.4641,5.2939 3.4101,5.2899 3.3525,5.2856 3.2917,5.2812 3.2284,5.2767 3.1629,5.272 3.0959,5.2673 3.0278,5.2625 2.9592,5.2577 2.8906,5.2529 2.8225,5.2482 2.7555,5.2437 2.6899,5.2392 2.6264,5.235 2.5655,5.2309 2.5077,5.2271 2.4535,5.2236 2.4035,5.2205 2.358,5.2176 2.3178,5.2152 2.2832,5.2132 2.2549,5.2117 2.2332,5.2107 2.2188,5.2103 2.2121,5.2104 2.2099,5.2135 2.2085,5.2217 2.2079,5.2347 2.2081,5.2523 2.2091,5.2742 2.211,5.3001 2.2136,5.3298 2.2171,5.3628 2.2214,5.3991 2.2266,5.4382 2.2326,5.48 2.2395,5.5241 2.2473,5.5703 2.2559,5.6182 2.2654,5.6676 2.2757,5.7183 2.287,5.7699 2.2991,5.8221 2.3122,5.8748 2.3261,5.9276 2.3409,5.9802 2.3567,6.0323 2.3734,6.0837 2.391,6.1341 2.4095,6.1832 2.429,6.2308 2.4494,6.2765 2.4708,6.3201 2.4931,6.3613 2.5163,6.3998 2.5406,6.4354 2.5658,6.4678 2.5953,6.4978 2.632,6.5265 2.6754,6.5538 2.7252,6.5797 2.7808,6.6041 2.8419,6.627 2.9079,6.6482 2.9784,6.6677 3.0529,6.6855 3.131,6.7014 3.2122,6.7154 3.296,6.7275 3.3821,6.7375 3.47,6.7455 3.5591,6.7513 3.6491,6.7548 3.7394,6.7561 3.8297,6.755 3.9195,6.7515 4.0083,6.7454 4.0956,6.7368 4.181,6.7256 4.2641,6.7117 4.3444,6.695 4.4214,6.6755 4.4947,6.6531 4.5638,6.6278 4.6283,6.5994 4.6877,6.5679 4.7416,6.5333 4.7894,6.4954" fill="none" stroke="rgb(255,0,0)" stroke-width="0.01"/>
<text x="3.6345" y="5.9832" fill="rgb(0,0,0)" font-family="monospace" font-size="0.16" font-weight="bold" text-anchor="middle" dominant-baseline="middle">P06</text>
<circle cx="2.8684" cy="5.6239" r="0.035" fill="rgb(0,0,0)"/>
<text x="2.8684" y="5.5399" fill="rgb(0,0,0)" font-family="monospace" font-size="0.12" text-anchor="middle">L</text>
<circle cx="4.295" cy="6.0339" r="0.035" fill="rgb(0,0,0)"/>
<text x="4.295" y="5.9499" fill="rgb(0,0,0)" font-family="monospace" font-size="0.12" text-anchor="middle">R</text>
<text x="3.6345" y="6.9361" fill="rgb(0,0,0)" font-family="monospace" font-size="0.12" text-anchor="middle">P06</text>
</g>
<g id="P07">
<polygon points="5.4323,6.3254 5.4391,6.3274 5.4494,6.3282 5.4632,6.3278 5.4801,6.3261 5.4998,6.3234 5.5222,6.3197 5.5469,6.315 5.5738,6.3095 5.6027,6.3032 5.6331,6.2961 5.665,6.2883 5.6981,6.28 5.7321,6.2712 5.7668,6.2619 5.802,6.2522 5.8374,6.2423 5.8727,6.2321 5.9077,6.2218 5.9422,6.2113 5.976,6.2009 6.0088,6.1905 6.0403,6.1802 6.0703,6.1702 6.0985,6.1604 6.1248,6.1509 6.1489,6.1419 6.1705,6.1334 6.1894,6.1254 6.2054,6.118 6.2182,6.1114 6.2275,6.1055 6.2332,6.1004 6.2361,6.0937 6.2376,6.0827 6.2377,6.0678 6.2365,6.0492 6.234,6.0273 6.2303,6.0023 6.2256,5.9746 6.2199,5.9444 6.2133,5.9119 6.2058,5.8776 6.1976,5.8416 6.1887,5.8043 6.1792,5.7659 6.1692,5.7267 6.1588,5.687 6.148,5.6472 6.1369,5.6074 6.1257,5.568 6.1143,5.5293 6.103,5.4914 6.0916,5.4549 6.0805,5.4198 6.0695,5.3865 6.0588,5.3554 6.0486,5.3266 6.0387,5.3004 6.0294,5.2772 6.0208,5.2572 6.0128,5.2408 6.0056,5.2281 5.9993,5.2196 5.994,5.2154 5.9894,5.2137 5.9854,5.2123 5.9818,5.2113 5.9788,5.2106 5.9761,5.2103 5.9738,5.2103 5.9717,5.2107 5.97,5.2115 5.9684,5.2127 5.967,5.2142 5.9657,5.2161 5.9645,5.2184 5.9633,5.2211 5.962,5.2242 5.9607,5.2276 5.9592,5.2315 5.9576,5.2357 5.9557,5.2404 5.9535,5.2455 5.9511,5.2509 5.9482,5.2568 5.9449,5.2631 5.9412,5.2698 5.9369,5.2769 5.9321,5.2845 5.9266,5.2925 5.9205,5.3009 5.9137,5.3097 5.9061,5.319 5.8977,5.3287 5.8884,5.3389 5.8782,5.3495 5.867,5.3619 5.8547,5.3772 5.8414,5.3952 5.8273,5.4157 5.8123,5.4386 5.7966,5.4636 5.7803,5.4906 5.7635,5.5193 5.7462,5.5497 5.7286,5.5814 5.7108,5.6142 5.6928,5.6481 5.6748,5.6828 5.6568,5.7181 5.6389,5.7538 5.6213,5.7897 5.604,5.8257 5.5871,5.8615 5.5707,5.8969 5.5548,5.9318 5.5397,5.966 5.5254,5.9993 5.5119,6.0314 5.4994,6.0622 5.488,6.0915 5.4777,6.1191 5.4687,6.1448 5.461,6.1685 5.4548,6.1898 5.45,6.2087 5.4469,6.225 5.4456,6.2384 5.4449,6.2497 5.444,6.26 5.4428,6.2691 5.4413,6.2774 5.4397,6.2846 5.4379,6.291 5.436,6.2966 5.4339,6.3014 5.4318,6.3055 5.4296,6.3089 5.4274,6.3117 5.4253,6.3139 5.4231,6.3157 5.4211,6.317 5.4191,6.3179 5.4173,6.3184 5.4157,6.3187 5.4143,6.3188 5.4131,6.3186 5.4121,6.3184 5.4115,6.3181 5.4111,6.3177 5.4112,6.3174 5.4116,6.3172 5.4124,6.3171 5.4137,6.3173 5.4154,6.3177 5.4176,6.3184 5.4204,6.3194 5.4238,6.3209 5.4277,6.3229" fill="none" stroke="rgb(255,0,0)" stroke-width="0.01"/>
<text x="5.8244" y="5.7692" fill="rgb(0,0,0)" font-family="monospace" font-size="0.16" font-weight="bold" text-anchor="middle" dominant-baseline="middle">P07</text>
<circle cx="5.6401" cy="6.0913" r="0.035" fill="rgb(0,0,0)"/>
<text x="5.6401" y="6.0073" fill="rgb(0,0,0)" font-family="monospace" font-size="0.12" text-anchor="middle">L</text>
<circle cx="6.0534" cy="5.9663" r="0.035" fill="rgb(0,0,0)"/>
<text x="6.0534" y="5.8823" fill="rgb(0,0,0)" font-family="monospace" font-size="0.12" text-anchor="middle">R</text>
<text x="5.8244" y="6.5082" fill="rgb(0,0,0)" font-family="monospace" font-size="0.12" text-anchor="middle">P07</text>
</g>
<g id="P08">
<polygon points="6.7876,5.5779 6.7907,5.5779 6.7957,5.5789 6.8024,5.5808 6.8106,5.5836 6.8204,5.5872 6.8315,5.5914 6.8438,5.5962 6.8572,5.6015 6.8716,5.6072 6.8869,5.6133 6.903,5.6196 6.9197,5.6261 6.9369,5.6326 6.9546,5.6391 6.9725,5.6455 6.9906,5.6518 7.0087,5.6578 7.0268,5.6634 7.0446,5.6686 7.0622,5.6732 7.0793,5.6773 7.0959,5.6806 7.1118,5.6832 7.127,5.6849 7.1412,5.6856 7.1544,5.6853 7.1665,5.6839 7.1773,5.6812 7.1868,5.6773 7.1948,5.672 7.2011,5.6652 7.2057,5.6568 7.2091,5.6476 7.2118,5.638 7.2138,5.6282 7.2152,5.6181 7.216,5.6078 7.2161,5.5974 7.2156,5.5867 7.2146,5.5759 7.2129,5.565 7.2107,5.5539 7.2079,5.5427 7.2046,5.5314 7.2007,5.5201 7.1963,5.5087 7.1914,5.4973 7.186,5.4858 7.18,5.4744 7.1737,5.463 7.1668,5.4517 7.1595,5.4404 7.1517,5.4292 7.1435,5.4181 7.1349,5.4071 7.1259,5.3962 7.1165,5.3855 7.1067,5.375 7.0966,5.3647 7.086,5.3546 7.0752,5.3447 7.064,5.3351 7.0524,5.3258 7.0406,5.3167 7.0286,5.308 7.0167,5.2998 7.0048,5.2919 6.9929,5.2845 6.9812,5.2776 6.9696,5.271 6.9581,5.2648 6.9467,5.259 6.9355,5.2536 6.9245,5.2485 6.9136,5.2439 6.903,5.2395 6.8927,5.2355 6.8825,5.2318 6.8727,5.2285 6.8631,5.2255 6.8539,5.2228 6.845,5.2203 6.8364,5.2182 6.8281,5.2163 6.8203,5.2147 6.8129,5.2134 6.8058,5.2123 6.7992,5.2115 6.7931,5.2108 6.7874,5.2104 6.7822,5.2103 6.7775,5.2103 6.7734,5.2105 6.7698,5.2109 6.7667,5.2115 6.7643,5.2123 6.7618,5.2135 6.7586,5.2153 6.7549,5.2179 6.7507,5.2211 6.7459,5.2249 6.7407,5.2293 6.7351,5.2343 6.7292,5.2399 6.7229,5.246 6.7163,5.2527 6.7095,5.2599 6.7025,5.2676 6.6953,5.2758 6.6881,5.2845 6.6808,5.2936 6.6734,5.3031 6.6661,5.313 6.6588,5.3234 6.6517,5.3341 6.6447,5.3451 6.6379,5.3565 6.6314,5.3683 6.6251,5.3803 6.6192,5.3926 6.6136,5.4052 6.6084,5.418 6.6037,5.431 6.5995,5.4443 6.5958,5.4578 6.5928,5.4714 6.5903,5.4852 6.5885,5.4991 6.5877,5.5125 6.588,5.5247 6.5894,5.5357 6.5918,5.5456 6.5951,5.5545 6.5993,5.5623 6.6042,5.5692 6.6099,5.5752 6.6163,5.5804 6.6233,5.5847 6.6308,5.5883 6.6387,5.5912 6.647,5.5934 6.6557,5.595 6.6646,5.5961 6.6736,5.5966 6.6828,5.5968 6.692,5.5965 6.7013,5.5958 6.7104,5.5949 6.7193,5.5937 6.7281,5.5922 6.7365,5.5907 6.7445,5.589 6.7522,5.5873 6.7593,5.5856 6.7658,5.5839 6.7717,5.5823 6.7769,5.5808 6.7814,5.5796 6.7849,5.5786" fill="none" stroke="rgb(255,0,0)" stroke-width="0.01"/>
<text x="6.9019" y="5.4479" fill="rgb(0,0,0)" font-family="monospace" font-size="0.16" font-weight="bold" text-anchor="middle" dominant-baseline="middle">P08</text>
<circle cx="6.744" cy="5.4857" r="0.035" fill="rgb(0,0,0)"/>
<text x="6.744" y="5.4017" fill="rgb(0,0,0)" font-family="monospace" font-size="0.12" text-anchor="middle">L</text>
<circle cx="7.0582" cy="5.5281" r="0.035" fill="rgb(0,0,0)"/>
<text x="7.0582" y="5.4441" fill="rgb(0,0,0)" font-family="monospace" font-size="0.12" text-anchor="middle">R</text>
<text x="6.9019" y="5.8656" fill="rgb(0,0,0)" font-family="monospace" font-size="0.12" text-anchor="middle">P08</text>
</g>
<g id="P09">
<polygon points="10.3445,8.2331 10.4053,8.2131 10.4652,8.1889 10.5241,8.1608 10.5821,8.1288 10.6389,8.0934 10.6946,8.0547 10.7492,8.013 10.8024,7.9685 10.8543,7.9214 10.9048,7.8721 10.9538,7.8207 11.0013,7.7674 11.0472,7.7126 11.0914,7.6564 11.1339,7.5992 11.1746,7.541 11.2134,7.4823 11.2502,7.4231 11.2851,7.3638 11.3178,7.3046 11.3485,7.2458 11.3769,7.1875 11.4031,7.13 11.4269,7.0736 11.4483,7.0185 11.4673,6.9649 11.4837,6.913 11.4975,6.8632 11.5087,6.8157 11.5171,6.7706 11.5227,6.7283 11.5255,6.6889 11.5253,6.6493 11.5225,6.6062 11.5171,6.5599 11.5094,6.5107 11.4994,6.4589 11.4875,6.4049 11.4736,6.3489 11.4582,6.2913 11.4412,6.2323 11.4229,6.1723 11.4034,6.1116 11.383,6.0504 11.3618,5.9892 11.3399,5.9281 11.3176,5.8675 11.2951,5.8077 11.2724,5.749 11.2498,5.6917 11.2274,5.6362 11.2054,5.5827 11.1841,5.5315 11.1635,5.483 11.1438,5.4374 11.1253,5.3951 11.1081,5.3563 11.0923,5.3214 11.0781,5.2907 11.0658,5.2645 11.0554,5.243 11.0472,5.2267 11.0414,5.2158 11.038,5.2105 11.0296,5.2103 11.009,5.2139 10.9769,5.2211 10.9339,5.2316 10.8808,5.2452 10.8183,5.2616 10.747,5.2805 10.6677,5.3016 10.5811,5.3247 10.4879,5.3495 10.3887,5.3757 10.2844,5.4031 10.1754,5.4313 10.0627,5.4602 9.9468,5.4894 9.8285,5.5187 9.7085,5.5478 9.5875,5.5764 9.4661,5.6043 9.3451,5.6312 9.2251,5.6568 9.107,5.6809 8.9913,5.7031 8.8788,5.7232 8.7701,5.741 8.6661,5.7562 8.5673,5.7684 8.4745,5.7775 8.3883,5.7831 8.3095,5.785 8.2388,5.7829 8.1769,5.7766 8.1211,5.7728 8.0681,5.7785 8.0179,5.7929 7.9706,5.8156 7.9261,5.8461 7.8844,5.8837 7.8453,5.928 7.809,5.9785 7.7753,6.0346 7.7443,6.0958 7.7158,6.1615 7.69,6.2312 7.6666,6.3044 7.6458,6.3805 7.6275,6.4591 7.6116,6.5395 7.5982,6.6213 7.5871,6.7039 7.5784,6.7867 7.572,6.8693 7.5679,6.9511 7.5661,7.0316 7.5665,7.1103 7.5692,7.1865 7.574,7.2599 7.5809,7.3297 7.59,7.3956 7.6011,7.457 7.6143,7.5133 7.6296,7.5641 7.6468,7.6087 7.666,7.6466 7.6907,7.6812 7.7243,7.7159 7.7662,7.7506 7.816,7.7852 7.8731,7.8195 7.937,7.8535 8.0073,7.8871 8.0834,7.92 8.1648,7.9523 8.251,7.9838 8.3415,8.0143 8.4358,8.0438 8.5335,8.0721 8.6339,8.0991 8.7366,8.1247 8.8411,8.1489 8.9469,8.1714 9.0534,8.1921 9.1603,8.211 9.2669,8.2279 9.3727,8.2426 9.4774,8.2552 9.5803,8.2654 9.6809,8.2732 9.7788,8.2784 9.8734,8.281 9.9643,8.2807 10.0509,8.2775 10.1327,8.2712 10.2092,8.2618 10.28,8.2492" fill="none" stroke="rgb(255,0,0)" stroke-width="0.01"/>
<text x="9.5458" y="6.7456" fill="rgb(0,0,0)" font-family="monospace" font-size="0.16" font-weight="bold" text-anchor="middle" dominant-baseline="middle">P09</text>
<circle cx="8.5749" cy="6.9288" r="0.035" fill="rgb(0,0,0)"/>
<text x="8.5749" y="6.8448" fill="rgb(0,0,0)" font-family="monospace" font-size="0.12" text-anchor="middle">L</text>
<circle cx="10.5546" cy="6.7575" r="0.035" fill="rgb(0,0,0)"/>
<text x="10.5546" y="6.6735" fill="rgb(0,0,0)" font-family="monospace" font-size="0.12" text-anchor="middle">R</text>
<text x="9.5458" y="8.461" fill="rgb(0,0,0)" font-family="monospace" font-size="0.12" text-anchor="middle">P09</text>
</g>
<g id="P10">
<polygon points="0.9392,11.3858 0.9513,11.3841 0.9824,11.3794 1.0313,11.3719 1.0965,11.3618 1.177,11.3492 1.2714,11.3342 1.3784,11.317 1.497,11.2977 1.6257,11.2766 1.7634,11.2536 1.9087,11.229 2.0606,11.203 2.2176,11.1756 2.3785,11.147 2.5422,11.1174 2.7072,11.0869 2.8725,11.0556 3.0367,11.0238 3.1986,10.9915 3.357,10.9589 3.5105,10.9261 3.658,10.8933 3.7982,10.8606 3.9298,10.8283 4.0516,10.7963 4.1624,10.765 4.2608,10.7343 4.3457,10.7045 4.4158,10.6757 4.4698,10.6481 4.5065,10.6218 4.5246,10.597 4.5302,10.5712 4.5303,10.5422 4.5251,10.5102 4.5148,10.4755 4.4997,10.4383 4.4801,10.3988 4.4561,10.3572 4.4279,10.3138 4.3959,10.2688 4.3603,10.2224 4.3212,10.1749 4.2789,10.1265 4.2337,10.0774 4.1857,10.0279 4.1353,9.9782 4.0826,9.9285 4.0279,9.879 3.9714,9.8301 3.9133,9.7818 3.854,9.7345 3.7935,9.6884 3.7322,9.6437 3.6702,9.6007 3.6079,9.5595 3.5454,9.5204 3.4829,9.4836 3.4208,9.4495 3.3593,9.4181 3.2984,9.3897 3.2387,9.3647 3.1801,9.3431 3.123,9.3252 3.0739,9.3108 3.0385,9.2994 3.0154,9.2909 3.0036,9.285 3.0018,9.2818 3.0088,9.281 3.0235,9.2824 3.0447,9.286 3.0711,9.2916 3.1015,9.299 3.1349,9.3082 3.1699,9.319 3.2054,9.3311 3.2403,9.3446 3.2732,9.3592 3.303,9.3748 3.3286,9.3913 3.3487,9.4085 3.3621,9.4263 3.3677,9.4445 3.3642,9.463 3.3505,9.4816 3.3254,9.5003 3.2877,9.5189 3.2361,9.5371 3.1695,9.555 3.0867,9.5723 2.9866,9.5888 2.8678,9.6046 2.7293,9.6193 2.5698,9.633 2.3881,9.6453 2.2009,9.6578 2.0254,9.6716 1.8611,9.6868 1.7077,9.7033 1.5649,9.721 1.4323,9.7397 1.3095,9.7595 1.1961,9.7802 1.0918,9.8018 0.9963,9.8242 0.9091,9.8472 0.8299,9.8708 0.7583,9.895 0.6939,9.9196 0.6365,9.9446 0.5855,9.9698 0.5407,9.9952 0.5018,10.0207 0.4682,10.0463 0.4397,10.0718 0.4159,10.0972 0.3964,10.1223 0.3809,10.1471 0.369,10.1715 0.3603,10.1955 0.3545,10.2189 0.3512,10.2417 0.35,10.2637 0.3506,10.285 0.3526,10.3053 0.3556,10.3247 0.3593,10.343 0.3645,10.3627 0.3724,10.386 0.3826,10.4126 0.3951,10.4423 0.4097,10.4748 0.4262,10.5098 0.4443,10.5471 0.464,10.5862 0.4851,10.6271 0.5073,10.6693 0.5306,10.7127 0.5547,10.7568 0.5794,10.8016 0.6046,10.8466 0.6301,10.8916 0.6557,10.9363 0.6813,10.9805 0.7067,11.0238 0.7316,11.066 0.756,11.1068 0.7796,11.1459 0.8023,11.1831 0.8239,11.218 0.8442,11.2504 0.863,11.2801 0.8802,11.3066 0.8956,11.3298 0.909,11.3494 0.9202,11.365 0.9291,11.3765 0.9355,11.3835" fill="none" stroke="rgb(255,0,0)" stroke-width="0.01"/>
<text x="2.4401" y="10.3334" fill="rgb(0,0,0)" font-family="monospace" font-size="0.16" font-weight="bold" text-anchor="middle" dominant-baseline="middle">P10</text>
<circle cx="1.3431" cy="10.3346" r="0.035" fill="rgb(0,0,0)"/>
<text x="1.3431" y="10.2506" fill="rgb(0,0,0)" font-family="monospace" font-size="0.12" text-anchor="middle">L</text>
<circle cx="3.4332" cy="10.4739" r="0.035" fill="rgb(0,0,0)"/>
<text x="3.4332" y="10.3899" fill="rgb(0,0,0)" font-family="monospace" font-size="0.12" text-anchor="middle">R</text>
<text x="2.4401" y="11.5658" fill="rgb(0,0,0)" font-family="monospace" font-size="0.12" text-anchor="middle">P10</text>
</g>
<g id="P11">
<polygon points="6.3291,10.6758 6.3508,10.6497 6.3742,10.6309 6.3991,10.619 6.4255,10.6133 6.4532,10.6134 6.482,10.6189 6.5119,10.6292 6.5426,10.6439 6.5741,10.6623 6.6062,10.6841 6.6389,10.7088 6.6718,10.7358 6.7051,10.7647 6.7384,10.7949 6.7716,10.8261 6.8047,10.8576 6.8375,10.8889 6.8698,10.9197 6.9016,10.9493 6.9326,10.9774 6.9628,11.0033 6.992,11.0267 7.0201,11.047 7.047,11.0637 7.0725,11.0763 7.0965,11.0844 7.1188,11.0874 7.1393,11.0848 7.158,11.0762 7.1745,11.061 7.189,11.0388 7.201,11.009 7.2098,10.9726 7.2143,10.9309 7.2148,10.8843 7.2117,10.8334 7.2051,10.7784 7.1953,10.7198 7.1825,10.6579 7.167,10.5934 7.149,10.5264 7.1288,10.4575 7.1066,10.3871 7.0826,10.3155 7.0571,10.2432 7.0304,10.1706 7.0027,10.0982 6.9742,10.0262 6.9452,9.9552 6.9159,9.8856 6.8866,9.8177 6.8575,9.752 6.8288,9.6889 6.8009,9.6288 6.7739,9.5721 6.748,9.5192 6.7237,9.4706 6.701,9.4267 6.6802,9.3878 6.6616,9.3544 6.6455,9.3269 6.632,9.3057 6.6214,9.2913 6.6139,9.2839 6.6057,9.2814 6.5928,9.281 6.5754,9.2825 6.5539,9.2861 6.5284,9.2915 6.4994,9.2988 6.4669,9.3079 6.4313,9.3186 6.3929,9.331 6.3519,9.3449 6.3086,9.3604 6.2633,9.3773 6.2161,9.3955 6.1675,9.4151 6.1176,9.4359 6.0668,9.4578 6.0152,9.4809 5.9631,9.505 5.9109,9.53 5.8588,9.556 5.807,9.5828 5.7558,9.6103 5.7055,9.6386 5.6563,9.6675 5.6086,9.697 5.5625,9.727 5.5184,9.7574 5.4765,9.7882 5.4371,9.8194 5.4004,9.8507 5.3667,9.8822 5.3362,9.9139 5.307,9.9477 5.2769,9.9856 5.2462,10.0274 5.2151,10.0727 5.1839,10.1214 5.1528,10.173 5.1222,10.2275 5.0922,10.2844 5.0632,10.3436 5.0354,10.4047 5.009,10.4675 4.9844,10.5316 4.9617,10.597 4.9413,10.6632 4.9234,10.7299 4.9082,10.797 4.896,10.8642 4.8871,10.9311 4.8818,10.9976 4.8803,11.0633 4.8828,11.128 4.8896,11.1913 4.901,11.2531 4.9173,11.313 4.9386,11.3709 4.9653,11.4263 4.9976,11.4791 5.0358,11.529 5.0801,11.5756 5.1309,11.6188 5.1883,11.6583 5.2526,11.6937 5.3187,11.723 5.3815,11.7444 5.4411,11.7583 5.4975,11.7652 5.551,11.7653 5.6017,11.7592 5.6496,11.7471 5.6949,11.7295 5.7378,11.7069 5.7783,11.6794 5.8166,11.6477 5.8528,11.612 5.887,11.5728 5.9194,11.5304 5.95,11.4852 5.9791,11.4377 6.0067,11.3882 6.0329,11.3371 6.0579,11.2848 6.0819,11.2318 6.1048,11.1783 6.1269,11.1248 6.1483,11.0717 6.1691,11.0194 6.1895,10.9682 6.2094,10.9186 6.2292,10.871 6.2489,10.8257 6.2686,10.7831 6.2884,10.7437 6.3086,10.7078" fill="none" stroke="rgb(255,0,0)" stroke-width="0.01"/>
<text x="6.0476" y="10.5231" fill="rgb(0,0,0)" font-family="monospace" font-size="0.16" font-weight="bold" text-anchor="middle" dominant-baseline="middle">P11</text>
<circle cx="5.4193" cy="10.7873" r="0.035" fill="rgb(0,0,0)"/>
<text x="5.4193" y="10.7033" fill="rgb(0,0,0)" font-family="monospace" font-size="0.12" text-anchor="middle">L</text>
<circle cx="6.5866" cy="10.6978" r="0.035" fill="rgb(0,0,0)"/>
<text x="6.5866" y="10.6138" fill="rgb(0,0,0)" font-family="monospace" font-size="0.12" text-anchor="middle">R</text>
<text x="6.0476" y="11.9453" fill="rgb(0,0,0)" font-family="monospace" font-size="0.12" text-anchor="middle">P11</text>
</g>
<g id="P12">
<polygon points="8.4312,10.3245 8.5316,10.2253 8.6304,10.1471 8.7277,10.0887 8.8231,10.049 8.9168,10.0268 9.0085,10.0208 9.0982,10.03 9.1857,10.0532 9.271,10.0891 9.354,10.1367 9.4345,10.1947 9.5124,10.2619 9.5877,10.3373 9.6603,10.4195 9.73,10.5075 9.7967,10.6001 9.8603,10.696 9.9208,10.7942 9.978,10.8933 10.0319,10.9924 10.0823,11.0902 10.1291,11.1854 10.1722,11.277 10.2115,11.3638 10.2469,11.4446 10.2784,11.5182 10.3058,11.5834 10.3289,11.6391 10.3478,11.6841 10.3623,11.7172 10.3723,11.7373 10.3776,11.7432 10.3808,11.7391 10.3842,11.7304 10.3877,11.7174 10.3912,11.7003 10.3947,11.6795 10.3979,11.6552 10.4009,11.6276 10.4035,11.5972 10.4056,11.5641 10.4072,11.5286 10.408,11.491 10.4081,11.4516 10.4073,11.4107 10.4055,11.3686 10.4026,11.3255 10.3986,11.2817 10.3933,11.2375 10.3865,11.1932 10.3783,11.1491 10.3686,11.1053 10.3571,11.0624 10.3439,11.0204 10.3288,10.9797 10.3117,10.9405 10.2925,10.9032 10.2712,10.8681 10.2475,10.8353 10.2215,10.8052 10.1931,10.7781 10.162,10.7542 10.1283,10.7339 10.0917,10.7174 10.0547,10.6991 10.0194,10.6736 9.9856,10.6416 9.9531,10.6034 9.9215,10.5597 9.8907,10.5111 9.8604,10.458 9.8304,10.4011 9.8005,10.3408 9.7704,10.2778 9.7398,10.2125 9.7086,10.1456 9.6765,10.0775 9.6432,10.0089 9.6086,9.9402 9.5724,9.8721 9.5343,9.805 9.4941,9.7396 9.4515,9.6763 9.4064,9.6158 9.3585,9.5585 9.3076,9.5051 9.2533,9.456 9.1956,9.4118 9.1341,9.3731 9.0686,9.3405 8.9988,9.3144 8.9246,9.2954 8.8457,9.2841 8.7618,9.281 8.6727,9.2866 8.5782,9.3016 8.4868,9.3266 8.4065,9.3614 8.3369,9.4054 8.2771,9.4581 8.2266,9.5187 8.1846,9.5867 8.1506,9.6615 8.1239,9.7425 8.1038,9.8289 8.0897,9.9203 8.0809,10.016 8.0767,10.1154 8.0765,10.2178 8.0797,10.3227 8.0855,10.4294 8.0934,10.5374 8.1026,10.6459 8.1125,10.7544 8.1225,10.8623 8.1319,10.969 8.14,11.0737 8.1462,11.176 8.1498,11.2752 8.1502,11.3707 8.1467,11.4619 8.1386,11.5481 8.1254,11.6288 8.1063,11.7032 8.0807,11.7709 8.0479,11.8312 8.0072,11.8834 7.9581,11.927 7.9061,11.9624 7.8574,11.9906 7.812,12.0117 7.7701,12.026 7.7318,12.0335 7.6971,12.0345 7.6662,12.0292 7.6392,12.0176 7.6163,12 7.5974,11.9766 7.5827,11.9475 7.5723,11.9128 7.5663,11.8728 7.5648,11.8277 7.568,11.7775 7.5759,11.7225 7.5886,11.6629 7.6063,11.5987 7.629,11.5302 7.6569,11.4576 7.69,11.381 7.7285,11.3006 7.7724,11.2166 7.8219,11.129 7.8771,11.0382 7.9381,10.9443 8.005,10.8474 8.0778,10.7477 8.1567,10.6454 8.2419,10.5407 8.3333,10.4337" fill="none" stroke="rgb(255,0,0)" stroke-width="0.01"/>
<text x="8.9865" y="10.6578" fill="rgb(0,0,0)" font-family="monospace" font-size="0.16" font-weight="bold" text-anchor="middle" dominant-baseline="middle">P12</text>
<circle cx="8.5585" cy="10.619" r="0.035" fill="rgb(0,0,0)"/>
<text x="8.5585" y="10.535" fill="rgb(0,0,0)" font-family="monospace" font-size="0.12" text-anchor="middle">L</text>
<circle cx="9.9801" cy="10.431" r="0.035" fill="rgb(0,0,0)"/>
<text x="9.9801" y="10.347" fill="rgb(0,0,0)" font-family="monospace" font-size="0.12" text-anchor="middle">R</text>
<text x="8.9865" y="12.2145" fill="rgb(0,0,0)" font-family="monospace" font-size="0.12" text-anchor="middle">P12</text>
</g>
<g id="P13">
<polygon points="1.3086,15.6334 1.3544,15.6408 1.4002,15.6387 1.4462,15.6275 1.4922,15.6079 1.5382,15.5802 1.5841,15.5452 1.63,15.5034 1.6757,15.4552 1.7212,15.4012 1.7665,15.3421 1.8115,15.2783 1.8562,15.2104 1.9004,15.1389 1.9443,15.0644 1.9877,14.9874 2.0306,14.9085 2.0729,14.8282 2.1146,14.7471 2.1556,14.6657 2.1959,14.5845 2.2355,14.5042 2.2743,14.4252 2.3122,14.3482 2.3492,14.2736 2.3853,14.202 2.4204,14.1339 2.4544,14.07 2.4874,14.0107 2.5193,13.9566 2.5499,13.9082 2.5794,13.8661 2.6075,13.8309 2.6347,13.8 2.6613,13.7706 2.6871,13.7425 2.7122,13.7158 2.7365,13.6903 2.76,13.666 2.7826,13.6428 2.8044,13.6207 2.8251,13.5996 2.8448,13.5794 2.8636,13.56 2.8812,13.5414 2.8977,13.5235 2.913,13.5063 2.9271,13.4896 2.9399,13.4734 2.9514,13.4577 2.9616,13.4424 2.9704,13.4274 2.9778,13.4126 2.9836,13.3979 2.988,13.3834 2.9908,13.3689 2.992,13.3544 2.9916,13.3398 2.9894,13.325 2.9855,13.31 2.9799,13.2947 2.9724,13.279 2.9631,13.2629 2.9518,13.2462 2.9386,13.229 2.9194,13.2117 2.8905,13.1946 2.8524,13.1781 2.806,13.162 2.7517,13.1465 2.6902,13.1316 2.622,13.1175 2.5479,13.1043 2.4684,13.0919 2.3842,13.0806 2.2958,13.0702 2.2039,13.0611 2.1091,13.0531 2.012,13.0465 1.9132,13.0412 1.8134,13.0374 1.7131,13.0352 1.6131,13.0345 1.5138,13.0356 1.4159,13.0385 1.32,13.0432 1.2268,13.0498 1.1369,13.0585 1.0508,13.0692 0.9692,13.0822 0.8928,13.0974 0.8221,13.1149 0.7577,13.1348 0.7003,13.1573 0.6504,13.1823 0.6088,13.21 0.5759,13.2404 0.5483,13.2728 0.522,13.3063 0.497,13.3409 0.4736,13.3766 0.4518,13.4132 0.4318,13.4507 0.4137,13.4891 0.3976,13.5282 0.3836,13.568 0.3719,13.6085 0.3626,13.6496 0.3557,13.6912 0.3515,13.7333 0.35,13.7758 0.3514,13.8186 0.3557,13.8617 0.3632,13.9051 0.3739,13.9486 0.388,13.9922 0.4055,14.0358 0.4266,14.0794 0.4514,14.1229 0.4801,14.1662 0.5127,14.2094 0.5494,14.2523 0.5904,14.2948 0.6356,14.337 0.6853,14.3786 0.7395,14.4198 0.7985,14.4604 0.8622,14.5003 0.9309,14.5395 0.9974,14.5788 1.055,14.6187 1.104,14.6592 1.1452,14.7001 1.1791,14.7414 1.2061,14.783 1.2268,14.8248 1.2419,14.8667 1.2517,14.9085 1.257,14.9502 1.2582,14.9916 1.2558,15.0328 1.2505,15.0735 1.2427,15.1137 1.233,15.1533 1.222,15.1921 1.2102,15.2301 1.1981,15.2672 1.1864,15.3033 1.1754,15.3382 1.1659,15.372 1.1583,15.4044 1.1532,15.4353 1.151,15.4648 1.1525,15.4926 1.1581,15.5187 1.1683,15.5429 1.1838,15.5653 1.205,15.5856 1.2325,15.6038 1.2669,15.6197" fill="none" stroke="rgb(255,0,0)" stroke-width="0.01"/>
<text x="1.671" y="14.3377" fill="rgb(0,0,0)" font-family="monospace" font-size="0.16" font-weight="bold" text-anchor="middle" dominant-baseline="middle">P13</text>
<circle cx="0.9629" cy="13.8876" r="0.035" fill="rgb(0,0,0)"/>
<text x="0.9629" y="13.8036" fill="rgb(0,0,0)" font-family="monospace" font-size="0.12" text-anchor="middle">L</text>
<circle cx="2.2839" cy="13.6769" r="0.035" fill="rgb(0,0,0)"/>
<text x="2.2839" y="13.5929" fill="rgb(0,0,0)" font-family="monospace" font-size="0.12" text-anchor="middle">R</text>
<text x="1.671" y="15.8208" fill="rgb(0,0,0)" font-family="monospace" font-size="0.12" text-anchor="middle">P13</text>
</g>
<g id="P14">
<polygon points="3.7865,13.8782 3.7907,13.8784 3.799,13.8773 3.8109,13.8752 3.8264,13.8721 3.845,13.868 3.8666,13.8631 3.8908,13.8573 3.9175,13.8508 3.9462,13.8436 3.9769,13.8358 4.0091,13.8276 4.0426,13.8188 4.0772,13.8097 4.1126,13.8004 4.1486,13.7907 4.1847,13.7809 4.2209,13.7711 4.2567,13.7612 4.292,13.7514 4.3265,13.7417 4.3599,13.7322 4.392,13.723 4.4224,13.7141 4.4509,13.7057 4.4772,13.6977 4.5011,13.6903 4.5223,13.6836 4.5406,13.6776 4.5556,13.6723 4.5671,13.6679 4.5748,13.6644 4.5784,13.6619 4.5803,13.6585 4.5829,13.6522 4.5859,13.6432 4.5896,13.6318 4.5937,13.6181 4.5982,13.6023 4.6031,13.5847 4.6084,13.5653 4.6139,13.5444 4.6197,13.5222 4.6256,13.4989 4.6317,13.4747 4.6379,13.4497 4.6441,13.4241 4.6503,13.3982 4.6564,13.3722 4.6624,13.3462 4.6683,13.3204 4.6739,13.295 4.6793,13.2702 4.6844,13.2462 4.6891,13.2232 4.6935,13.2014 4.6973,13.181 4.7007,13.1621 4.7035,13.145 4.7057,13.1298 4.7072,13.1168 4.7081,13.1061 4.7082,13.0979 4.7075,13.0924 4.7059,13.0899 4.7005,13.0887 4.6885,13.0874 4.6704,13.0859 4.6465,13.0843 4.6175,13.0824 4.5836,13.0805 4.5453,13.0784 4.5031,13.0763 4.4574,13.074 4.4086,13.0717 4.3572,13.0693 4.3036,13.0669 4.2482,13.0645 4.1916,13.0621 4.134,13.0596 4.076,13.0572 4.018,13.0549 3.9604,13.0526 3.9037,13.0503 3.8483,13.0482 3.7946,13.0461 3.7431,13.0442 3.6942,13.0424 3.6484,13.0407 3.606,13.0392 3.5676,13.0379 3.5336,13.0368 3.5044,13.0359 3.4804,13.0352 3.462,13.0347 3.4498,13.0345 3.4442,13.0346 3.4417,13.0353 3.439,13.0368 3.4358,13.0392 3.4324,13.0424 3.4288,13.0463 3.4249,13.0509 3.4207,13.0562 3.4165,13.0621 3.412,13.0687 3.4075,13.0758 3.4029,13.0835 3.3983,13.0917 3.3936,13.1003 3.3889,13.1094 3.3843,13.1188 3.3798,13.1286 3.3754,13.1387 3.3711,13.1491 3.367,13.1597 3.3631,13.1705 3.3594,13.1815 3.356,13.1927 3.3529,13.2039 3.3501,13.2152 3.3477,13.2265 3.3457,13.2378 3.344,13.249 3.3429,13.2602 3.3422,13.2712 3.342,13.2821 3.3424,13.2927 3.3433,13.3032 3.3457,13.3145 3.3503,13.3276 3.3568,13.3426 3.3653,13.3591 3.3755,13.3771 3.3872,13.3964 3.4005,13.4168 3.415,13.4382 3.4307,13.4606 3.4475,13.4836 3.4651,13.5072 3.4834,13.5313 3.5024,13.5556 3.5218,13.5801 3.5415,13.6046 3.5614,13.6289 3.5814,13.6529 3.6012,13.6765 3.6207,13.6994 3.6399,13.7217 3.6585,13.743 3.6764,13.7634 3.6935,13.7826 3.7096,13.8004 3.7246,13.8168 3.7384,13.8316 3.7507,13.8446 3.7615,13.8557 3.7707,13.8647 3.778,13.8716 3.7833,13.8762" fill="none" stroke="rgb(255,0,0)" stroke-width="0.01"/>
<text x="4.0251" y="13.4565" fill="rgb(0,0,0)" font-family="monospace" font-size="0.16" font-weight="bold" text-anchor="middle" dominant-baseline="middle">P14</text>
<circle cx="3.6816" cy="13.3401" r="0.035" fill="rgb(0,0,0)"/>
<text x="3.6816" y="13.2561" fill="rgb(0,0,0)" font-family="monospace" font-size="0.12" text-anchor="middle">L</text>
<circle cx="4.3647" cy="13.2481" r="0.035" fill="rgb(0,0,0)"/>
<text x="4.3647" y="13.1641" fill="rgb(0,0,0)" font-family="monospace" font-size="0.12" text-anchor="middle">R</text>
<text x="4.0251" y="14.0584" fill="rgb(0,0,0)" font-family="monospace" font-size="0.12" text-anchor="middle">P14</text>
</g>
<g id="P15">
<polygon points="6.1017,14.7255 6.185,14.7201 6.2587,14.7147 6.3233,14.7093 6.3793,14.704 6.427,14.6987 6.467,14.6934 6.4997,14.6881 6.5255,14.6829 6.545,14.6778 6.5586,14.6727 6.5667,14.6678 6.5699,14.6629 6.5685,14.6581 6.5631,14.6535 6.554,14.649 6.5418,14.6446 6.5269,14.6403 6.5098,14.6362 6.4908,14.6323 6.4706,14.6286 6.4496,14.625 6.4281,14.6216 6.4067,14.6185 6.3858,14.6155 6.3659,14.6128 6.3475,14.6103 6.331,14.6081 6.3168,14.6061 6.3054,14.6044 6.2974,14.6029 6.293,14.6018 6.2929,14.6009 6.2993,14.5972 6.3135,14.5876 6.3352,14.5727 6.3635,14.5525 6.3979,14.5276 6.4377,14.4981 6.4823,14.4645 6.5311,14.4271 6.5835,14.3862 6.6387,14.3422 6.6963,14.2952 6.7554,14.2458 6.8156,14.1942 6.8762,14.1408 6.9365,14.0858 6.996,14.0297 7.0539,13.9727 7.1097,13.9152 7.1627,13.8574 7.2123,13.7998 7.2578,13.7427 7.2987,13.6863 7.3343,13.6311 7.3639,13.5773 7.387,13.5253 7.4028,13.4754 7.4109,13.4279 7.4104,13.3832 7.4009,13.3415 7.3817,13.3033 7.352,13.2689 7.3114,13.2385 7.266,13.2111 7.2221,13.1852 7.1797,13.1611 7.1387,13.1387 7.0988,13.1182 7.06,13.0997 7.0222,13.0834 6.9851,13.0692 6.9486,13.0572 6.9127,13.0477 6.8771,13.0407 6.8417,13.0363 6.8064,13.0345 6.7711,13.0356 6.7356,13.0396 6.6997,13.0465 6.6634,13.0566 6.6265,13.0698 6.5888,13.0863 6.5503,13.1063 6.5107,13.1297 6.4699,13.1567 6.4279,13.1874 6.3844,13.2219 6.3394,13.2603 6.2926,13.3027 6.244,13.3492 6.1934,13.3999 6.1407,13.4549 6.0857,13.5143 6.0283,13.5782 5.9683,13.6467 5.9081,13.7151 5.8502,13.779 5.7944,13.8385 5.7409,13.8938 5.6895,13.9451 5.6403,13.9926 5.5931,14.0365 5.5481,14.077 5.5053,14.1142 5.4644,14.1485 5.4257,14.1799 5.389,14.2087 5.3543,14.2351 5.3217,14.2592 5.291,14.2812 5.2623,14.3014 5.2356,14.32 5.2108,14.3371 5.188,14.3529 5.1671,14.3676 5.148,14.3815 5.1309,14.3947 5.1156,14.4073 5.1021,14.4197 5.0905,14.432 5.0807,14.4444 5.0727,14.4571 5.0664,14.4702 5.0619,14.4841 5.0592,14.4988 5.0582,14.5146 5.0589,14.5316 5.0606,14.549 5.0629,14.5656 5.0659,14.5815 5.0698,14.5966 5.0746,14.611 5.0805,14.6247 5.0877,14.6376 5.0963,14.6498 5.1065,14.6612 5.1184,14.6719 5.1321,14.6819 5.1478,14.6912 5.1657,14.6997 5.1858,14.7075 5.2083,14.7146 5.2334,14.721 5.2612,14.7266 5.2919,14.7315 5.3256,14.7357 5.3624,14.7392 5.4025,14.7419 5.446,14.744 5.4931,14.7453 5.544,14.7459 5.5986,14.7458 5.6573,14.745 5.7202,14.7435 5.7873,14.7413 5.8589,14.7384 5.9351,14.7348 6.016,14.7305" fill="none" stroke="rgb(255,0,0)" stroke-width="0.01"/>
<text x="6.2345" y="13.8902" fill="rgb(0,0,0)" font-family="monospace" font-size="0.16" font-weight="bold" text-anchor="middle" dominant-baseline="middle">P15</text>
<circle cx="5.6875" cy="14.2347" r="0.035" fill="rgb(0,0,0)"/>
<text x="5.6875" y="14.1507" fill="rgb(0,0,0)" font-family="monospace" font-size="0.12" text-anchor="middle">L</text>
<circle cx="6.8638" cy="13.6913" r="0.035" fill="rgb(0,0,0)"/>
<text x="6.8638" y="13.6073" fill="rgb(0,0,0)" font-family="monospace" font-size="0.12" text-anchor="middle">R</text>
<text x="6.2345" y="14.9259" fill="rgb(0,0,0)" font-family="monospace" font-size="0.12" text-anchor="middle">P15</text>
</g>
<g id="P16">
<polygon points="8.6052,14.9937 8.6301,15.0021 8.6599,15.0086 8.6943,15.0134 8.7328,15.0164 8.7751,15.018 8.8208,15.018 8.8696,15.0167 8.9211,15.014 8.9749,15.0102 9.0307,15.0054 9.088,14.9995 9.1466,14.9927 9.2059,14.9852 9.2658,14.977 9.3257,14.9682 9.3854,14.9589 9.4444,14.9492 9.5024,14.9392 9.559,14.929 9.6139,14.9187 9.6666,14.9084 9.7169,14.8983 9.7643,14.8883 9.8084,14.8786 9.8489,14.8694 9.8855,14.8606 9.9177,14.8524 9.9451,14.8449 9.9675,14.8382 9.9844,14.8324 9.9955,14.8276 10.0004,14.8238 10.0023,14.8166 10.0046,14.8014 10.0072,14.7788 10.0099,14.7494 10.0126,14.7135 10.0152,14.6717 10.0176,14.6245 10.0196,14.5724 10.0211,14.5158 10.0221,14.4553 10.0223,14.3914 10.0216,14.3245 10.02,14.2552 10.0173,14.1839 10.0134,14.1112 10.0081,14.0375 10.0014,13.9633 9.9931,13.8892 9.983,13.8156 9.9712,13.7429 9.9573,13.6719 9.9414,13.6028 9.9232,13.5362 9.9028,13.4726 9.8799,13.4125 9.8543,13.3564 9.8261,13.3048 9.7951,13.2582 9.7611,13.217 9.724,13.1818 9.6838,13.153 9.6402,13.1313 9.5926,13.1141 9.5408,13.0989 9.4852,13.0856 9.426,13.074 9.3637,13.0641 9.2986,13.0558 9.2312,13.049 9.1617,13.0436 9.0906,13.0396 9.0183,13.0368 8.945,13.0351 8.8713,13.0345 8.7974,13.035 8.7237,13.0362 8.6506,13.0383 8.5785,13.0412 8.5078,13.0446 8.4387,13.0486 8.3718,13.0531 8.3073,13.0579 8.2457,13.063 8.1873,13.0683 8.1325,13.0737 8.0817,13.0791 8.0352,13.0845 7.9934,13.0897 7.9567,13.0947 7.9254,13.0993 7.9,13.1035 7.8808,13.1073 7.8681,13.1104 7.8624,13.1128 7.8601,13.1162 7.8573,13.1219 7.8542,13.13 7.8506,13.1403 7.8467,13.1527 7.8426,13.1671 7.8382,13.1834 7.8336,13.2014 7.8288,13.2211 7.8239,13.2423 7.8189,13.265 7.8139,13.2889 7.8089,13.3141 7.8039,13.3404 7.799,13.3677 7.7942,13.3958 7.7896,13.4247 7.7852,13.4542 7.781,13.4843 7.7771,13.5149 7.7735,13.5457 7.7703,13.5767 7.7675,13.6079 7.7651,13.639 7.7632,13.67 7.7619,13.7007 7.7611,13.7311 7.7609,13.761 7.7613,13.7904 7.7625,13.8191 7.7643,13.8469 7.767,13.8739 7.7716,13.9017 7.7791,13.9319 7.7895,13.9644 7.8025,13.999 7.8181,14.0354 7.836,14.0735 7.8561,14.1131 7.8782,14.1539 7.9021,14.1958 7.9278,14.2386 7.9551,14.282 7.9837,14.3259 8.0136,14.3701 8.0445,14.4143 8.0764,14.4584 8.109,14.5022 8.1423,14.5454 8.1759,14.5879 8.2099,14.6294 8.244,14.6699 8.278,14.709 8.3119,14.7465 8.3454,14.7823 8.3784,14.8162 8.4108,14.848 8.4423,14.8774 8.4728,14.9043 8.5022,14.9284 8.5303,14.9496 8.557,14.9677 8.582,14.9825" fill="none" stroke="rgb(255,0,0)" stroke-width="0.01"/>
<text x="8.8916" y="14.0263" fill="rgb(0,0,0)" font-family="monospace" font-size="0.16" font-weight="bold" text-anchor="middle" dominant-baseline="middle">P16</text>
<circle cx="8.3478" cy="13.8706" r="0.035" fill="rgb(0,0,0)"/>
<text x="8.3478" y="13.7866" fill="rgb(0,0,0)" font-family="monospace" font-size="0.12" text-anchor="middle">L</text>
<circle cx="9.4785" cy="14.1858" r="0.035" fill="rgb(0,0,0)"/>
<text x="9.4785" y="14.1018" fill="rgb(0,0,0)" font-family="monospace" font-size="0.12" text-anchor="middle">R</text>
<text x="8.8916" y="15.198" fill="rgb(0,0,0)" font-family="monospace" font-size="0.12" text-anchor="middle">P16</text>
</g>
<g id="P17">
<polygon points="2.876,18.6552 2.88,18.6522 2.8873,18.6444 2.8977,18.632 2.9111,18.6155 2.9272,18.5949 2.9458,18.5706 2.9666,18.5429 2.9895,18.5119 3.0142,18.4781 3.0406,18.4415 3.0683,18.4025 3.0972,18.3614 3.1271,18.3184 3.1577,18.2738 3.1888,18.2278 3.2202,18.1808 3.2516,18.1329 3.283,18.0844 3.3139,18.0357 3.3443,17.9868 3.3739,17.9383 3.4024,17.8901 3.4297,17.8428 3.4556,17.7964 3.4797,17.7514 3.502,17.7078 3.5221,17.6661 3.5399,17.6264 3.5551,17.5891 3.5676,17.5543 3.577,17.5224 3.5833,17.4937 3.5876,17.4663 3.5913,17.4386 3.5944,17.4107 3.5969,17.3824 3.5988,17.354 3.6,17.3254 3.6005,17.2967 3.6003,17.268 3.5994,17.2393 3.5977,17.2107 3.5953,17.1822 3.5921,17.1539 3.588,17.1258 3.5831,17.098 3.5773,17.0705 3.5706,17.0434 3.5629,17.0168 3.5544,16.9907 3.5448,16.9651 3.5343,16.9401 3.5228,16.9158 3.5102,16.8922 3.4966,16.8693 3.4818,16.8473 3.466,16.8261 3.449,16.8059 3.4309,16.7867 3.4116,16.7684 3.391,16.7513 3.3693,16.7353 3.3463,16.7205 3.322,16.707 3.2952,16.6946 3.2649,16.6834 3.231,16.6733 3.1936,16.6645 3.153,16.657 3.109,16.6508 3.062,16.646 3.0119,16.6428 2.9588,16.641 2.9028,16.6408 2.844,16.6423 2.7826,16.6455 2.7185,16.6504 2.652,16.6571 2.583,16.6657 2.5117,16.6762 2.4382,16.6887 2.3625,16.7033 2.2848,16.7199 2.2051,16.7387 2.1236,16.7597 2.0402,16.7829 1.9552,16.8085 1.8686,16.8365 1.7806,16.8669 1.6911,16.8998 1.6003,16.9353 1.5082,16.9733 1.4151,17.0141 1.3209,17.0575 1.2257,17.1038 1.1297,17.1528 1.0368,17.203 0.9507,17.2525 0.8712,17.3014 0.7981,17.3495 0.7313,17.3971 0.6705,17.4439 0.6157,17.4902 0.5666,17.5358 0.523,17.5808 0.4848,17.6251 0.4517,17.6689 0.4237,17.712 0.4004,17.7545 0.3818,17.7964 0.3676,17.8378 0.3577,17.8785 0.3519,17.9186 0.35,17.9582 0.3518,17.9972 0.3572,18.0357 0.3659,18.0735 0.3778,18.1109 0.3927,18.1476 0.4104,18.1839 0.4308,18.2196 0.4536,18.2548 0.4787,18.2894 0.5059,18.3235 0.5351,18.3571 0.5659,18.3902 0.5983,18.4228 0.6321,18.455 0.6707,18.4854 0.7175,18.5133 0.7718,18.5385 0.8329,18.5614 0.9003,18.5819 0.9734,18.6001 1.0516,18.6163 1.1342,18.6304 1.2207,18.6427 1.3104,18.6532 1.4028,18.662 1.4972,18.6692 1.593,18.675 1.6896,18.6794 1.7865,18.6826 1.8829,18.6847 1.9784,18.6858 2.0722,18.6859 2.1638,18.6853 2.2525,18.684 2.3379,18.6821 2.4192,18.6798 2.4958,18.6771 2.5672,18.6741 2.6327,18.6711 2.6917,18.668 2.7437,18.665 2.788,18.6622 2.8239,18.6597 2.851,18.6576 2.8686,18.6561" fill="none" stroke="rgb(255,0,0)" stroke-width="0.01"/>
<text x="1.9753" y="17.6634" fill="rgb(0,0,0)" font-family="monospace" font-size="0.16" font-weight="bold" text-anchor="middle" dominant-baseline="middle">P17</text>
<circle cx="1.2112" cy="17.8388" r="0.035" fill="rgb(0,0,0)"/>
<text x="1.2112" y="17.7548" fill="rgb(0,0,0)" font-family="monospace" font-size="0.12" text-anchor="middle">L</text>
<circle cx="2.8364" cy="17.5081" r="0.035" fill="rgb(0,0,0)"/>
<text x="2.8364" y="17.4241" fill="rgb(0,0,0)" font-family="monospace" font-size="0.12" text-anchor="middle">R</text>
<text x="1.9753" y="18.8659" fill="rgb(0,0,0)" font-family="monospace" font-size="0.12" text-anchor="middle">P17</text>
</g>
<g id="P18">
<polygon points="5.0812,18.0014 5.1255,18.0122 5.1682,18.0222 5.2093,18.0313 5.2488,18.0396 5.2866,18.0469 5.3226,18.0534 5.3568,18.0589 5.3892,18.0634 5.4197,18.0669 5.4481,18.0693 5.4746,18.0708 5.499,18.0711 5.5213,18.0703 5.5414,18.0683 5.5593,18.0652 5.5749,18.0609 5.5881,18.0553 5.599,18.0485 5.6074,18.0403 5.6133,18.0309 5.6167,18.0201 5.6175,18.008 5.6157,17.9944 5.6111,17.9795 5.6038,17.963 5.5936,17.9451 5.5806,17.9256 5.5647,17.9047 5.5458,17.8821 5.5239,17.858 5.4989,17.8322 5.4708,17.8048 5.444,17.7758 5.4227,17.7454 5.4066,17.7139 5.3954,17.6811 5.3886,17.6474 5.3861,17.6128 5.3874,17.5774 5.3921,17.5414 5.4,17.5047 5.4107,17.4677 5.4238,17.4303 5.4391,17.3928 5.4562,17.3551 5.4746,17.3174 5.4942,17.2799 5.5145,17.2427 5.5352,17.2058 5.556,17.1694 5.5766,17.1336 5.5965,17.0986 5.6154,17.0643 5.633,17.031 5.649,16.9988 5.663,16.9677 5.6747,16.9379 5.6837,16.9095 5.6897,16.8827 5.6923,16.8574 5.6913,16.834 5.6862,16.8124 5.6767,16.7927 5.6626,16.7752 5.6437,16.7591 5.6206,16.7437 5.5936,16.7292 5.5629,16.7155 5.5288,16.7027 5.4914,16.6909 5.4511,16.6802 5.4081,16.6707 5.3627,16.6623 5.3152,16.6552 5.2656,16.6494 5.2145,16.6451 5.1619,16.6422 5.1081,16.6408 5.0534,16.6411 4.9981,16.643 4.9424,16.6466 4.8865,16.652 4.8307,16.6593 4.7753,16.6686 4.7205,16.6798 4.6665,16.6931 4.6137,16.7085 4.5623,16.7262 4.5124,16.7461 4.4645,16.7683 4.4187,16.7929 4.3753,16.82 4.3345,16.8497 4.2966,16.8819 4.2619,16.9168 4.2305,16.9544 4.2019,16.9922 4.175,17.0276 4.1498,17.0606 4.1263,17.0915 4.1045,17.1202 4.0843,17.147 4.0657,17.1718 4.0486,17.1949 4.033,17.2162 4.0189,17.236 4.0062,17.2542 3.995,17.2711 3.9851,17.2867 3.9765,17.3011 3.9692,17.3145 3.9632,17.3268 3.9583,17.3383 3.9547,17.349 3.9522,17.359 3.9508,17.3684 3.9505,17.3774 3.9512,17.386 3.953,17.3943 3.9556,17.4025 3.9593,17.4106 3.9638,17.4188 3.9691,17.427 3.9753,17.4356 3.9823,17.4445 3.99,17.4538 3.9984,17.4637 4.0075,17.4742 4.018,17.4856 4.0308,17.4979 4.0457,17.5112 4.0627,17.5253 4.0817,17.5402 4.1027,17.5557 4.1255,17.572 4.1501,17.5888 4.1763,17.6061 4.2043,17.6239 4.2337,17.6421 4.2647,17.6606 4.2971,17.6794 4.3308,17.6984 4.3658,17.7175 4.4019,17.7366 4.4392,17.7558 4.4775,17.775 4.5168,17.794 4.5569,17.8128 4.5979,17.8314 4.6396,17.8497 4.682,17.8676 4.725,17.8851 4.7685,17.902 4.8124,17.9184 4.8567,17.9342 4.9013,17.9493 4.9462,17.9636 4.9911,17.9771 5.0362,17.9897" fill="none" stroke="rgb(255,0,0)" stroke-width="0.01"/>
<text x="4.8214" y="17.3559" fill="rgb(0,0,0)" font-family="monospace" font-size="0.16" font-weight="bold" text-anchor="middle" dominant-baseline="middle">P18</text>
<circle cx="4.42" cy="17.3377" r="0.035" fill="rgb(0,0,0)"/>
<text x="4.42" y="17.2537" fill="rgb(0,0,0)" font-family="monospace" font-size="0.12" text-anchor="middle">L</text>
<circle cx="5.2909" cy="17.0777" r="0.035" fill="rgb(0,0,0)"/>
<text x="5.2909" y="16.9937" fill="rgb(0,0,0)" font-family="monospace" font-size="0.12" text-anchor="middle">R</text>
<text x="4.8214" y="18.2511" fill="rgb(0,0,0)" font-family="monospace" font-size="0.12" text-anchor="middle">P18</text>
</g>
<g id="P19">
<polygon points="6.4428,17.6569 6.4705,17.6533 6.5023,17.6487 6.5379,17.6431 6.5769,17.6367 6.619,17.6295 6.664,17.6215 6.7115,17.6129 6.7611,17.6036 6.8125,17.5939 6.8654,17.5836 6.9195,17.573 6.9745,17.5621 7.03,17.5509 7.0857,17.5395 7.1413,17.5281 7.1965,17.5165 7.2509,17.505 7.3042,17.4936 7.3561,17.4824 7.4062,17.4714 7.4543,17.4608 7.5,17.4505 7.543,17.4406 7.5829,17.4313 7.6195,17.4225 7.6524,17.4144 7.6813,17.407 7.7058,17.4005 7.7257,17.3948 7.7406,17.39 7.7502,17.3862 7.7541,17.3835 7.7541,17.3796 7.7521,17.3723 7.7482,17.3619 7.7425,17.3484 7.7351,17.3323 7.7261,17.3136 7.7155,17.2926 7.7036,17.2695 7.6904,17.2446 7.6759,17.2179 7.6603,17.1899 7.6438,17.1606 7.6263,17.1303 7.608,17.0992 7.5889,17.0675 7.5693,17.0354 7.5491,17.0032 7.5285,16.9711 7.5075,16.9393 7.4864,16.9079 7.4651,16.8773 7.4438,16.8476 7.4225,16.8191 7.4014,16.7919 7.3806,16.7663 7.3602,16.7425 7.3402,16.7207 7.3207,16.7011 7.3019,16.684 7.2839,16.6695 7.2667,16.6579 7.2505,16.6494 7.2336,16.6439 7.2146,16.6411 7.1935,16.6408 7.1705,16.6429 7.1457,16.6473 7.1193,16.6538 7.0913,16.6622 7.062,16.6724 7.0315,16.6842 6.9999,16.6975 6.9673,16.7122 6.9339,16.7281 6.8999,16.745 6.8652,16.7628 6.8302,16.7814 6.7949,16.8006 6.7595,16.8203 6.7241,16.8402 6.6888,16.8603 6.6538,16.8804 6.6192,16.9004 6.5852,16.9201 6.5519,16.9394 6.5194,16.958 6.4878,16.976 6.4574,16.993 6.4282,17.009 6.4004,17.0239 6.374,17.0374 6.3494,17.0494 6.3265,17.0598 6.3056,17.0684 6.2861,17.0759 6.2677,17.0831 6.2503,17.09 6.2339,17.0965 6.2184,17.1028 6.2038,17.1089 6.19,17.1147 6.1771,17.1204 6.1651,17.1258 6.1538,17.1312 6.1432,17.1364 6.1334,17.1416 6.1243,17.1467 6.1159,17.1517 6.108,17.1567 6.1008,17.1618 6.0942,17.1669 6.0881,17.172 6.0825,17.1773 6.0775,17.1826 6.0728,17.1881 6.0686,17.1938 6.0648,17.1997 6.0614,17.2057 6.0583,17.2121 6.0555,17.2187 6.053,17.2255 6.0507,17.2327 6.0487,17.2403 6.0468,17.2482 6.0451,17.2565 6.0435,17.2653 6.0425,17.2749 6.0423,17.2858 6.0431,17.2978 6.0449,17.3108 6.0475,17.3248 6.051,17.3397 6.0554,17.3552 6.0608,17.3713 6.067,17.388 6.0741,17.405 6.0821,17.4223 6.0909,17.4397 6.1006,17.4573 6.1112,17.4747 6.1227,17.492 6.135,17.5091 6.1481,17.5258 6.1621,17.542 6.1769,17.5576 6.1925,17.5725 6.209,17.5866 6.2262,17.5997 6.2443,17.6119 6.2632,17.6229 6.2829,17.6326 6.3034,17.641 6.3247,17.648 6.3468,17.6533 6.3696,17.657 6.3933,17.6589 6.4176,17.6589" fill="none" stroke="rgb(255,0,0)" stroke-width="0.01"/>
<text x="6.8982" y="17.1499" fill="rgb(0,0,0)" font-family="monospace" font-size="0.16" font-weight="bold" text-anchor="middle" dominant-baseline="middle">P19</text>
<circle cx="6.4673" cy="17.2442" r="0.035" fill="rgb(0,0,0)"/>
<text x="6.4673" y="17.1602" fill="rgb(0,0,0)" font-family="monospace" font-size="0.12" text-anchor="middle">L</text>
<circle cx="7.3232" cy="17.2931" r="0.035" fill="rgb(0,0,0)"/>
<text x="7.3232" y="17.2091" fill="rgb(0,0,0)" font-family="monospace" font-size="0.12" text-anchor="middle">R</text>
<text x="6.8982" y="17.8389" fill="rgb(0,0,0)" font-family="monospace" font-size="0.12" text-anchor="middle">P19</text>
</g>
<g id="P20">
<polygon points="8.2458,16.9092 8.2563,16.9092 8.2659,16.9094 8.2746,16.9097 8.2826,16.9101 8.2899,16.9105 8.2964,16.911 8.3023,16.9114 8.3076,16.9117 8.3124,16.912 8.3166,16.9122 8.3203,16.9122 8.3235,16.9121 8.3264,16.9117 8.3289,16.9111 8.3311,16.9103 8.333,16.9092 8.3347,16.9077 8.3362,16.9059 8.3375,16.9037 8.3387,16.9011 8.3398,16.898 8.341,16.8945 8.3421,16.8904 8.3433,16.8858 8.3446,16.8807 8.346,16.8749 8.3477,16.8686 8.3495,16.8615 8.3516,16.8538 8.354,16.8454 8.3568,16.8362 8.3599,16.8262 8.3632,16.8163 8.3664,16.8073 8.3694,16.799 8.3722,16.7915 8.3749,16.7848 8.3773,16.7787 8.3795,16.7732 8.3815,16.7682 8.3832,16.7638 8.3847,16.7599 8.3859,16.7564 8.3867,16.7532 8.3873,16.7504 8.3875,16.7478 8.3874,16.7455 8.3869,16.7433 8.386,16.7413 8.3847,16.7393 8.3831,16.7374 8.3809,16.7354 8.3784,16.7334 8.3754,16.7312 8.3719,16.7289 8.3679,16.7263 8.3634,16.7235 8.3584,16.7204 8.3528,16.7168 8.3467,16.7129 8.34,16.7085 8.3327,16.7036 8.3249,16.6982 8.3164,16.6921 8.3079,16.6859 8.3003,16.6801 8.2934,16.6747 8.2871,16.6697 8.2815,16.665 8.2765,16.6608 8.2719,16.657 8.2679,16.6536 8.2642,16.6506 8.2609,16.648 8.2579,16.6458 8.2552,16.644 8.2527,16.6426 8.2503,16.6416 8.248,16.641 8.2458,16.6408 8.2436,16.641 8.2413,16.6416 8.239,16.6426 8.2364,16.644 8.2337,16.6458 8.2307,16.648 8.2274,16.6506 8.2238,16.6536 8.2197,16.657 8.2152,16.6608 8.2101,16.665 8.2045,16.6697 8.1982,16.6747 8.1913,16.6801 8.1837,16.6859 8.1753,16.6921 8.1668,16.6982 8.1589,16.7036 8.1516,16.7085 8.1449,16.7129 8.1388,16.7168 8.1333,16.7204 8.1282,16.7235 8.1237,16.7263 8.1198,16.7289 8.1163,16.7312 8.1132,16.7334 8.1107,16.7354 8.1086,16.7374 8.1069,16.7393 8.1056,16.7413 8.1047,16.7433 8.1043,16.7455 8.1041,16.7478 8.1043,16.7504 8.1049,16.7532 8.1058,16.7564 8.1069,16.7599 8.1084,16.7638 8.1101,16.7682 8.1121,16.7732 8.1143,16.7787 8.1167,16.7848 8.1194,16.7915 8.1222,16.799 8.1252,16.8073 8.1284,16.8163 8.1317,16.8262 8.1348,16.8362 8.1376,16.8454 8.14,16.8538 8.1421,16.8615 8.144,16.8686 8.1456,16.8749 8.147,16.8807 8.1483,16.8858 8.1495,16.8904 8.1507,16.8945 8.1518,16.898 8.1529,16.9011 8.1542,16.9037 8.1555,16.9059 8.157,16.9077 8.1586,16.9092 8.1605,16.9103 8.1627,16.9111 8.1652,16.9117 8.1681,16.9121 8.1714,16.9122 8.1751,16.9122 8.1793,16.912 8.184,16.9117 8.1893,16.9114 8.1952,16.911 8.2018,16.9105 8.209,16.9101 8.217,16.9097 8.2258,16.9094 8.2354,16.9092" fill="none" stroke="rgb(255,0,0)" stroke-width="0.01"/>
<text x="8.2458" y="16.7765" fill="rgb(0,0,0)" font-family="monospace" font-size="0.16" font-weight="bold" text-anchor="middle" dominant-baseline="middle">P20</text>
<circle cx="8.175" cy="16.7685" r="0.035" fill="rgb(0,0,0)"/>
<text x="8.175" y="16.6845" fill="rgb(0,0,0)" font-family="monospace" font-size="0.12" text-anchor="middle">L</text>
<circle cx="8.3167" cy="16.7685" r="0.035" fill="rgb(0,0,0)"/>
<text x="8.3167" y="16.6845" fill="rgb(0,0,0)" font-family="monospace" font-size="0.12" text-anchor="middle">R</text>
<text x="8.2458" y="17.0922" fill="rgb(0,0,0)" font-family="monospace" font-size="0.12" text-anchor="middle">P20</text>
</g>
</svg>
